<svg width="23" height="42" viewBox="0 0 23 42" fill="none" xmlns="http://www.w3.org/2000/svg">
<path d="M0 21.0781C0 20.4922 0.210938 19.9531 0.65625 19.5312L19.2422 1.34375C19.6406 0.945312 20.1562 0.734375 20.7656 0.734375C21.9844 0.734375 22.9219 1.64844 22.9219 2.86719C22.9219 3.45312 22.6641 3.99219 22.2891 4.39062L5.22656 21.0781L22.2891 37.7656C22.6641 38.1641 22.9219 38.6797 22.9219 39.2891C22.9219 40.5078 21.9844 41.4219 20.7656 41.4219C20.1562 41.4219 19.6406 41.2109 19.2422 40.7891L0.65625 22.625C0.210938 22.1797 0 21.6641 0 21.0781Z" fill="black"/>
</svg>
