<svg width="27" height="21" viewBox="0 0 27 21" fill="none" xmlns="http://www.w3.org/2000/svg">
<path d="M13.207 20.8867C12.9336 20.8867 12.6758 20.8281 12.4336 20.7109C12.1914 20.5938 11.9375 20.4062 11.6719 20.1484L6.67969 15.4141C6.60156 15.3438 6.50391 15.3086 6.38672 15.3086H3.02344C2.23438 15.3086 1.62891 15.0938 1.20703 14.6641C0.785156 14.2344 0.574219 13.5938 0.574219 12.7422V8.38281C0.574219 7.53906 0.785156 6.90234 1.20703 6.47266C1.62891 6.03516 2.23438 5.81641 3.02344 5.81641H6.38672C6.50391 5.81641 6.60156 5.78125 6.67969 5.71094L11.6719 1.02344C11.9766 0.742188 12.2344 0.539063 12.4453 0.414062C12.6641 0.28125 12.9102 0.214844 13.1836 0.214844C13.582 0.214844 13.9062 0.351563 14.1562 0.625C14.4062 0.890625 14.5312 1.21484 14.5312 1.59766V19.5742C14.5312 19.9492 14.4062 20.2617 14.1562 20.5117C13.9141 20.7617 13.5977 20.8867 13.207 20.8867ZM18.7148 15.5312C18.4805 15.3672 18.3477 15.1562 18.3164 14.8984C18.2852 14.6406 18.3594 14.3867 18.5391 14.1367C18.875 13.6602 19.1367 13.1133 19.3242 12.4961C19.5117 11.8711 19.6055 11.2188 19.6055 10.5391C19.6055 9.85938 19.5117 9.20703 19.3242 8.58203C19.1445 7.95703 18.8828 7.41016 18.5391 6.94141C18.3516 6.69922 18.2734 6.44922 18.3047 6.19141C18.3438 5.92578 18.4805 5.71094 18.7148 5.54688C18.918 5.40625 19.1406 5.35938 19.3828 5.40625C19.625 5.45312 19.8242 5.58984 19.9805 5.81641C20.4336 6.41016 20.7852 7.12109 21.0352 7.94922C21.293 8.77734 21.4219 9.64062 21.4219 10.5391C21.4219 11.4375 21.293 12.3008 21.0352 13.1289C20.7852 13.957 20.4336 14.668 19.9805 15.2617C19.8242 15.4883 19.625 15.625 19.3828 15.6719C19.1406 15.7109 18.918 15.6641 18.7148 15.5312ZM23.0625 18.5898C22.8516 18.4414 22.7305 18.2461 22.6992 18.0039C22.668 17.7539 22.7344 17.5078 22.8984 17.2656C23.5312 16.3516 24.0234 15.3164 24.375 14.1602C24.7344 12.9961 24.9141 11.7891 24.9141 10.5391C24.9141 9.28906 24.7383 8.08203 24.3867 6.91797C24.0352 5.75391 23.5391 4.71875 22.8984 3.8125C22.7266 3.57031 22.6562 3.32813 22.6875 3.08594C22.7266 2.83594 22.8516 2.63672 23.0625 2.48828C23.2812 2.33984 23.5117 2.28906 23.7539 2.33594C23.9961 2.38281 24.1953 2.51953 24.3516 2.74609C25.1094 3.76172 25.6953 4.95312 26.1094 6.32031C26.5234 7.6875 26.7305 9.09375 26.7305 10.5391C26.7305 11.9844 26.5195 13.3867 26.0977 14.7461C25.6836 16.1055 25.1016 17.3008 24.3516 18.332C24.1953 18.5586 23.9961 18.6953 23.7539 18.7422C23.5117 18.7812 23.2812 18.7305 23.0625 18.5898Z" fill="#343434"/>
</svg>
