<svg width="23" height="23" viewBox="0 0 23 23" fill="none" xmlns="http://www.w3.org/2000/svg">
<path d="M4.96484 15.3086C4.16797 15.3086 3.57031 15.1055 3.17188 14.6992C2.77344 14.2852 2.57422 13.6562 2.57422 12.8125V8.32422C2.57422 7.54297 2.74609 6.95703 3.08984 6.56641L16.4492 19.9141C16.3555 20.25 16.1992 20.4961 15.9805 20.6523C15.7617 20.8086 15.5 20.8867 15.1953 20.8867C14.9297 20.8867 14.6758 20.8281 14.4336 20.7109C14.1914 20.5938 13.9336 20.4062 13.6602 20.1484L8.59766 15.4141C8.51953 15.3438 8.42188 15.3086 8.30469 15.3086H4.96484ZM16.5312 13.5977L8.39844 5.48828H8.75C8.82031 5.48828 8.88672 5.45703 8.94922 5.39453L13.6602 1.02344C13.9648 0.742188 14.2266 0.539063 14.4453 0.414062C14.6641 0.28125 14.9102 0.214844 15.1836 0.214844C15.582 0.214844 15.9062 0.351563 16.1562 0.625C16.4062 0.890625 16.5312 1.21484 16.5312 1.59766V13.5977ZM20.5859 22.1172L0.5 2.05469C0.328125 1.88281 0.242188 1.67187 0.242188 1.42188C0.242188 1.16406 0.328125 0.949219 0.5 0.777344C0.679688 0.597656 0.894531 0.511719 1.14453 0.519531C1.39453 0.519531 1.60938 0.605469 1.78906 0.777344L21.8516 20.8398C22.0312 21.0195 22.1211 21.2305 22.1211 21.4727C22.1211 21.7227 22.0312 21.9375 21.8516 22.1172C21.6875 22.2969 21.4766 22.3867 21.2188 22.3867C20.9688 22.3867 20.7578 22.2969 20.5859 22.1172Z" fill="#343434"/>
</svg>
