<svg width="796" height="608" viewBox="0 0 796 608" fill="none" xmlns="http://www.w3.org/2000/svg">
<g filter="url(#filter0_d_178_569)">
<rect x="24" y="20" width="748" height="560" rx="20" fill="white"/>
</g>
<path d="M63.5781 82V62.4375H63.5156L57.5469 66.5938V63.7656L63.5469 59.4531H66.2969V82H63.5781ZM79.7812 82.375C78.1875 82.375 76.776 82.099 75.5469 81.5469C74.3177 80.9948 73.349 80.2344 72.6406 79.2656C71.9427 78.2865 71.5938 77.1667 71.5938 75.9062V75.875C71.5938 74.9479 71.7969 74.0885 72.2031 73.2969C72.6094 72.5052 73.1771 71.8333 73.9062 71.2812C74.6354 70.7188 75.4792 70.3281 76.4375 70.1094V70.0469C75.2083 69.6615 74.2292 69.026 73.5 68.1406C72.7708 67.2552 72.4062 66.2188 72.4062 65.0312V65C72.4062 63.8646 72.724 62.8542 73.3594 61.9688C73.9948 61.0729 74.8698 60.3698 75.9844 59.8594C77.099 59.3385 78.3646 59.0781 79.7812 59.0781C81.2083 59.0781 82.474 59.3385 83.5781 59.8594C84.6927 60.3698 85.5677 61.0729 86.2031 61.9688C86.8385 62.8542 87.1562 63.8646 87.1562 65V65.0312C87.1562 66.2188 86.7917 67.2552 86.0625 68.1406C85.3438 69.026 84.3646 69.6615 83.125 70.0469V70.1094C84.0938 70.3281 84.9375 70.7188 85.6562 71.2812C86.3854 71.8333 86.9531 72.5052 87.3594 73.2969C87.7656 74.0885 87.9688 74.9479 87.9688 75.875V75.9062C87.9688 77.1667 87.6198 78.2865 86.9219 79.2656C86.224 80.2344 85.2552 80.9948 84.0156 81.5469C82.7865 82.099 81.375 82.375 79.7812 82.375ZM79.7812 79.9219C80.8229 79.9219 81.7396 79.7448 82.5312 79.3906C83.3333 79.026 83.9635 78.5312 84.4219 77.9062C84.8802 77.2708 85.1094 76.5469 85.1094 75.7344V75.7031C85.1094 74.8802 84.8802 74.151 84.4219 73.5156C83.974 72.8802 83.349 72.3802 82.5469 72.0156C81.7448 71.651 80.8229 71.4688 79.7812 71.4688C78.7396 71.4688 77.8177 71.651 77.0156 72.0156C76.2135 72.3802 75.5833 72.8802 75.125 73.5156C74.6771 74.151 74.4531 74.8802 74.4531 75.7031V75.7344C74.4531 76.5469 74.6823 77.2708 75.1406 77.9062C75.599 78.5312 76.2292 79.026 77.0312 79.3906C77.8333 79.7448 78.75 79.9219 79.7812 79.9219ZM79.7812 69C80.6875 69 81.4844 68.8438 82.1719 68.5312C82.8594 68.2083 83.3958 67.7656 83.7812 67.2031C84.1667 66.6406 84.3594 65.9948 84.3594 65.2656V65.2344C84.3594 64.5052 84.1667 63.8594 83.7812 63.2969C83.3958 62.7344 82.8594 62.2969 82.1719 61.9844C81.4844 61.6615 80.6875 61.5 79.7812 61.5C78.875 61.5 78.0781 61.6615 77.3906 61.9844C76.7031 62.2969 76.1667 62.7344 75.7812 63.2969C75.3958 63.8594 75.2031 64.5052 75.2031 65.2344V65.2656C75.2031 65.9948 75.3958 66.6406 75.7812 67.2031C76.1667 67.7656 76.7031 68.2083 77.3906 68.5312C78.0781 68.8438 78.875 69 79.7812 69ZM99.0625 82.375C97.3333 82.375 95.849 81.901 94.6094 80.9531C93.3802 80.0052 92.4375 78.6615 91.7812 76.9219C91.125 75.1823 90.7969 73.1198 90.7969 70.7344V70.7031C90.7969 68.3177 91.125 66.2552 91.7812 64.5156C92.4375 62.776 93.3802 61.4375 94.6094 60.5C95.849 59.5521 97.3333 59.0781 99.0625 59.0781C100.792 59.0781 102.276 59.5521 103.516 60.5C104.755 61.4375 105.703 62.776 106.359 64.5156C107.026 66.2552 107.359 68.3177 107.359 70.7031V70.7344C107.359 73.1198 107.026 75.1823 106.359 76.9219C105.703 78.6615 104.755 80.0052 103.516 80.9531C102.276 81.901 100.792 82.375 99.0625 82.375ZM99.0625 79.9219C100.208 79.9219 101.188 79.5521 102 78.8125C102.823 78.0625 103.448 77 103.875 75.625C104.312 74.25 104.531 72.6198 104.531 70.7344V70.7031C104.531 68.8177 104.312 67.1927 103.875 65.8281C103.448 64.4531 102.823 63.3958 102 62.6562C101.188 61.9167 100.208 61.5469 99.0625 61.5469C97.9167 61.5469 96.9375 61.9167 96.125 62.6562C95.3125 63.3958 94.6927 64.4531 94.2656 65.8281C93.8385 67.1927 93.625 68.8177 93.625 70.7031V70.7344C93.625 72.6198 93.8385 74.25 94.2656 75.625C94.6927 77 95.3125 78.0625 96.125 78.8125C96.9375 79.5521 97.9167 79.9219 99.0625 79.9219Z" fill="#999999"/>
<path d="M82.6875 460.375C80.9583 460.375 79.474 459.901 78.2344 458.953C77.0052 458.005 76.0625 456.661 75.4062 454.922C74.75 453.182 74.4219 451.12 74.4219 448.734V448.703C74.4219 446.318 74.75 444.255 75.4062 442.516C76.0625 440.776 77.0052 439.438 78.2344 438.5C79.474 437.552 80.9583 437.078 82.6875 437.078C84.4167 437.078 85.901 437.552 87.1406 438.5C88.3802 439.438 89.3281 440.776 89.9844 442.516C90.651 444.255 90.9844 446.318 90.9844 448.703V448.734C90.9844 451.12 90.651 453.182 89.9844 454.922C89.3281 456.661 88.3802 458.005 87.1406 458.953C85.901 459.901 84.4167 460.375 82.6875 460.375ZM82.6875 457.922C83.8333 457.922 84.8125 457.552 85.625 456.812C86.4479 456.062 87.0729 455 87.5 453.625C87.9375 452.25 88.1562 450.62 88.1562 448.734V448.703C88.1562 446.818 87.9375 445.193 87.5 443.828C87.0729 442.453 86.4479 441.396 85.625 440.656C84.8125 439.917 83.8333 439.547 82.6875 439.547C81.5417 439.547 80.5625 439.917 79.75 440.656C78.9375 441.396 78.3177 442.453 77.8906 443.828C77.4635 445.193 77.25 446.818 77.25 448.703V448.734C77.25 450.62 77.4635 452.25 77.8906 453.625C78.3177 455 78.9375 456.062 79.75 456.812C80.5625 457.552 81.5417 457.922 82.6875 457.922Z" fill="#999999"/>
<path d="M149.578 540V520.438H149.516L143.547 524.594V521.766L149.547 517.453H152.297V540H149.578Z" fill="#343434"/>
<path d="M253.422 540.375C251.87 540.375 250.516 540.109 249.359 539.578C248.203 539.047 247.286 538.318 246.609 537.391C245.943 536.464 245.557 535.406 245.453 534.219L245.438 534.031H248.141L248.156 534.188C248.24 534.927 248.505 535.578 248.953 536.141C249.411 536.703 250.021 537.146 250.781 537.469C251.542 537.781 252.422 537.938 253.422 537.938C254.411 537.938 255.276 537.766 256.016 537.422C256.766 537.078 257.349 536.604 257.766 536C258.182 535.385 258.391 534.682 258.391 533.891V533.859C258.391 532.474 257.927 531.411 257 530.672C256.083 529.922 254.833 529.547 253.25 529.547H250.422V527.172H253.125C254.021 527.172 254.812 527.005 255.5 526.672C256.188 526.328 256.724 525.865 257.109 525.281C257.495 524.688 257.688 524.016 257.688 523.266V523.234C257.688 522.443 257.521 521.771 257.188 521.219C256.854 520.667 256.365 520.245 255.719 519.953C255.083 519.661 254.307 519.516 253.391 519.516C252.505 519.516 251.714 519.667 251.016 519.969C250.328 520.26 249.776 520.682 249.359 521.234C248.943 521.786 248.693 522.443 248.609 523.203L248.594 523.359H245.891L245.906 523.203C246.031 521.974 246.417 520.901 247.062 519.984C247.719 519.068 248.583 518.354 249.656 517.844C250.74 517.333 251.984 517.078 253.391 517.078C254.828 517.078 256.078 517.328 257.141 517.828C258.214 518.318 259.042 519 259.625 519.875C260.219 520.74 260.516 521.745 260.516 522.891V522.922C260.516 523.849 260.312 524.672 259.906 525.391C259.5 526.109 258.938 526.708 258.219 527.188C257.5 527.667 256.672 528.005 255.734 528.203V528.266C257.38 528.401 258.708 528.958 259.719 529.938C260.74 530.906 261.25 532.193 261.25 533.797V533.828C261.25 535.078 260.911 536.198 260.234 537.188C259.557 538.177 258.63 538.958 257.453 539.531C256.276 540.094 254.932 540.375 253.422 540.375Z" fill="#343434"/>
<path d="M193.828 540V538.062L201.766 529.781C202.786 528.719 203.562 527.844 204.094 527.156C204.635 526.458 205.005 525.833 205.203 525.281C205.411 524.729 205.516 524.141 205.516 523.516V523.484C205.516 522.714 205.333 522.031 204.969 521.438C204.615 520.844 204.12 520.38 203.484 520.047C202.859 519.703 202.135 519.531 201.312 519.531C200.375 519.531 199.536 519.729 198.797 520.125C198.057 520.51 197.474 521.031 197.047 521.688C196.62 522.344 196.406 523.078 196.406 523.891V523.969H193.688V523.875C193.688 522.573 194.026 521.411 194.703 520.391C195.38 519.359 196.292 518.552 197.438 517.969C198.594 517.375 199.87 517.078 201.266 517.078C202.63 517.078 203.844 517.354 204.906 517.906C205.969 518.458 206.802 519.208 207.406 520.156C208.021 521.104 208.328 522.167 208.328 523.344V523.375C208.328 524.198 208.172 524.995 207.859 525.766C207.557 526.536 207.026 527.406 206.266 528.375C205.505 529.333 204.432 530.521 203.047 531.938L196.859 538.281L197.688 536.547V538.281L196.859 537.5H208.703V540H193.828Z" fill="#343434"/>
<path d="M307.547 540V535.312H296.219V532.766C296.875 531.745 297.531 530.724 298.188 529.703C298.854 528.682 299.516 527.661 300.172 526.641C300.839 525.62 301.5 524.599 302.156 523.578C302.812 522.557 303.469 521.536 304.125 520.516C304.792 519.495 305.453 518.474 306.109 517.453H310.266V532.844H313.453V535.312H310.266V540H307.547ZM299 532.844H307.547V519.859H307.453C306.891 520.724 306.328 521.589 305.766 522.453C305.203 523.307 304.641 524.167 304.078 525.031C303.516 525.885 302.948 526.745 302.375 527.609C301.812 528.474 301.25 529.339 300.688 530.203C300.125 531.057 299.562 531.917 299 532.781V532.844Z" fill="#343434"/>
<path d="M357.578 540.375C356.141 540.375 354.859 540.099 353.734 539.547C352.62 538.995 351.724 538.24 351.047 537.281C350.37 536.323 349.974 535.234 349.859 534.016L349.844 533.844H352.609L352.625 533.969C352.719 534.708 352.99 535.38 353.438 535.984C353.885 536.578 354.469 537.047 355.188 537.391C355.906 537.734 356.714 537.906 357.609 537.906C358.63 537.906 359.531 537.688 360.312 537.25C361.094 536.812 361.703 536.208 362.141 535.438C362.578 534.656 362.797 533.76 362.797 532.75V532.719C362.797 531.729 362.573 530.854 362.125 530.094C361.688 529.323 361.083 528.719 360.312 528.281C359.542 527.844 358.656 527.625 357.656 527.625C356.896 527.625 356.188 527.74 355.531 527.969C354.885 528.188 354.312 528.526 353.812 528.984C353.615 529.172 353.422 529.375 353.234 529.594C353.057 529.812 352.896 530.052 352.75 530.312H350.266L351.422 517.453H364.328V519.953H353.734L352.969 527.531H353.031C353.385 527.021 353.823 526.594 354.344 526.25C354.865 525.906 355.448 525.646 356.094 525.469C356.74 525.292 357.427 525.203 358.156 525.203C359.604 525.203 360.885 525.526 362 526.172C363.125 526.818 364.005 527.703 364.641 528.828C365.286 529.943 365.609 531.224 365.609 532.672V532.703C365.609 534.203 365.266 535.531 364.578 536.688C363.891 537.844 362.943 538.75 361.734 539.406C360.526 540.052 359.141 540.375 357.578 540.375Z" fill="#343434"/>
<path d="M408.984 540.375C407.943 540.375 406.917 540.182 405.906 539.797C404.896 539.401 403.974 538.766 403.141 537.891C402.318 537.016 401.656 535.865 401.156 534.438C400.667 533 400.422 531.234 400.422 529.141V529.109C400.422 526.578 400.766 524.417 401.453 522.625C402.151 520.823 403.151 519.448 404.453 518.5C405.766 517.552 407.339 517.078 409.172 517.078C410.453 517.078 411.604 517.307 412.625 517.766C413.656 518.214 414.516 518.849 415.203 519.672C415.891 520.495 416.359 521.453 416.609 522.547L416.656 522.75H413.797L413.734 522.578C413.516 521.953 413.193 521.417 412.766 520.969C412.339 520.521 411.818 520.177 411.203 519.938C410.599 519.688 409.911 519.562 409.141 519.562C407.745 519.562 406.615 519.969 405.75 520.781C404.885 521.594 404.245 522.667 403.828 524C403.422 525.333 403.198 526.792 403.156 528.375C403.146 528.479 403.141 528.583 403.141 528.688C403.141 528.781 403.141 528.88 403.141 528.984L403.812 532.688C403.812 533.646 404.036 534.521 404.484 535.312C404.943 536.094 405.562 536.719 406.344 537.188C407.125 537.646 407.995 537.875 408.953 537.875C409.911 537.875 410.781 537.651 411.562 537.203C412.344 536.745 412.964 536.13 413.422 535.359C413.88 534.589 414.109 533.729 414.109 532.781V532.75C414.109 531.771 413.891 530.901 413.453 530.141C413.016 529.38 412.411 528.786 411.641 528.359C410.87 527.922 409.99 527.703 409 527.703C408.021 527.703 407.135 527.917 406.344 528.344C405.562 528.771 404.943 529.359 404.484 530.109C404.036 530.859 403.812 531.714 403.812 532.672V532.688H402.875V528.859H403.203C403.505 528.193 403.953 527.589 404.547 527.047C405.151 526.495 405.87 526.057 406.703 525.734C407.536 525.401 408.464 525.234 409.484 525.234C410.922 525.234 412.203 525.557 413.328 526.203C414.453 526.849 415.339 527.734 415.984 528.859C416.641 529.984 416.969 531.26 416.969 532.688V532.719C416.969 534.198 416.62 535.516 415.922 536.672C415.234 537.818 414.292 538.724 413.094 539.391C411.896 540.047 410.526 540.375 408.984 540.375Z" fill="#343434"/>
<path d="M455.125 540L465.328 520.016V519.953H453.188V517.453H468.109V520.062L458.078 540H455.125Z" fill="#343434"/>
<path d="M512.594 540.375C511 540.375 509.589 540.099 508.359 539.547C507.13 538.995 506.161 538.234 505.453 537.266C504.755 536.286 504.406 535.167 504.406 533.906V533.875C504.406 532.948 504.609 532.089 505.016 531.297C505.422 530.505 505.99 529.833 506.719 529.281C507.448 528.719 508.292 528.328 509.25 528.109V528.047C508.021 527.661 507.042 527.026 506.312 526.141C505.583 525.255 505.219 524.219 505.219 523.031V523C505.219 521.865 505.536 520.854 506.172 519.969C506.807 519.073 507.682 518.37 508.797 517.859C509.911 517.339 511.177 517.078 512.594 517.078C514.021 517.078 515.286 517.339 516.391 517.859C517.505 518.37 518.38 519.073 519.016 519.969C519.651 520.854 519.969 521.865 519.969 523V523.031C519.969 524.219 519.604 525.255 518.875 526.141C518.156 527.026 517.177 527.661 515.938 528.047V528.109C516.906 528.328 517.75 528.719 518.469 529.281C519.198 529.833 519.766 530.505 520.172 531.297C520.578 532.089 520.781 532.948 520.781 533.875V533.906C520.781 535.167 520.432 536.286 519.734 537.266C519.036 538.234 518.068 538.995 516.828 539.547C515.599 540.099 514.188 540.375 512.594 540.375ZM512.594 537.922C513.635 537.922 514.552 537.745 515.344 537.391C516.146 537.026 516.776 536.531 517.234 535.906C517.693 535.271 517.922 534.547 517.922 533.734V533.703C517.922 532.88 517.693 532.151 517.234 531.516C516.786 530.88 516.161 530.38 515.359 530.016C514.557 529.651 513.635 529.469 512.594 529.469C511.552 529.469 510.63 529.651 509.828 530.016C509.026 530.38 508.396 530.88 507.938 531.516C507.49 532.151 507.266 532.88 507.266 533.703V533.734C507.266 534.547 507.495 535.271 507.953 535.906C508.411 536.531 509.042 537.026 509.844 537.391C510.646 537.745 511.562 537.922 512.594 537.922ZM512.594 527C513.5 527 514.297 526.844 514.984 526.531C515.672 526.208 516.208 525.766 516.594 525.203C516.979 524.641 517.172 523.995 517.172 523.266V523.234C517.172 522.505 516.979 521.859 516.594 521.297C516.208 520.734 515.672 520.297 514.984 519.984C514.297 519.661 513.5 519.5 512.594 519.5C511.688 519.5 510.891 519.661 510.203 519.984C509.516 520.297 508.979 520.734 508.594 521.297C508.208 521.859 508.016 522.505 508.016 523.234V523.266C508.016 523.995 508.208 524.641 508.594 525.203C508.979 525.766 509.516 526.208 510.203 526.531C510.891 526.844 511.688 527 512.594 527Z" fill="#343434"/>
<path d="M564.766 517.078C565.807 517.078 566.833 517.276 567.844 517.672C568.854 518.057 569.771 518.688 570.594 519.562C571.427 520.438 572.089 521.594 572.578 523.031C573.078 524.458 573.328 526.219 573.328 528.312V528.344C573.328 530.875 572.979 533.042 572.281 534.844C571.594 536.635 570.599 538.005 569.297 538.953C567.995 539.901 566.422 540.375 564.578 540.375C563.307 540.375 562.156 540.146 561.125 539.688C560.094 539.229 559.234 538.594 558.547 537.781C557.859 536.958 557.391 536 557.141 534.906L557.094 534.703H559.953L560.016 534.875C560.245 535.49 560.568 536.026 560.984 536.484C561.411 536.932 561.927 537.281 562.531 537.531C563.146 537.771 563.839 537.891 564.609 537.891C566.016 537.891 567.146 537.484 568 536.672C568.865 535.859 569.5 534.786 569.906 533.453C570.323 532.109 570.552 530.651 570.594 529.078C570.604 528.974 570.609 528.875 570.609 528.781C570.609 528.677 570.609 528.573 570.609 528.469L569.938 524.766C569.938 523.797 569.708 522.922 569.25 522.141C568.802 521.359 568.188 520.74 567.406 520.281C566.635 519.812 565.766 519.578 564.797 519.578C563.839 519.578 562.969 519.807 562.188 520.266C561.406 520.714 560.786 521.323 560.328 522.094C559.87 522.865 559.641 523.724 559.641 524.672V524.703C559.641 525.682 559.859 526.552 560.297 527.312C560.734 528.073 561.339 528.672 562.109 529.109C562.88 529.536 563.76 529.75 564.75 529.75C565.74 529.75 566.625 529.536 567.406 529.109C568.188 528.682 568.802 528.094 569.25 527.344C569.708 526.594 569.938 525.74 569.938 524.781V524.766H570.875V528.594H570.547C570.245 529.26 569.797 529.87 569.203 530.422C568.609 530.964 567.891 531.401 567.047 531.734C566.214 532.057 565.286 532.219 564.266 532.219C562.839 532.219 561.557 531.896 560.422 531.25C559.297 530.604 558.406 529.719 557.75 528.594C557.104 527.469 556.781 526.193 556.781 524.766V524.734C556.781 523.255 557.125 521.943 557.812 520.797C558.51 519.641 559.458 518.734 560.656 518.078C561.854 517.411 563.224 517.078 564.766 517.078Z" fill="#343434"/>
<path d="M607.578 540V520.438H607.516L601.547 524.594V521.766L607.547 517.453H610.297V540H607.578ZM623.875 540.375C622.146 540.375 620.661 539.901 619.422 538.953C618.193 538.005 617.25 536.661 616.594 534.922C615.938 533.182 615.609 531.12 615.609 528.734V528.703C615.609 526.318 615.938 524.255 616.594 522.516C617.25 520.776 618.193 519.438 619.422 518.5C620.661 517.552 622.146 517.078 623.875 517.078C625.604 517.078 627.089 517.552 628.328 518.5C629.568 519.438 630.516 520.776 631.172 522.516C631.839 524.255 632.172 526.318 632.172 528.703V528.734C632.172 531.12 631.839 533.182 631.172 534.922C630.516 536.661 629.568 538.005 628.328 538.953C627.089 539.901 625.604 540.375 623.875 540.375ZM623.875 537.922C625.021 537.922 626 537.552 626.812 536.812C627.635 536.062 628.26 535 628.688 533.625C629.125 532.25 629.344 530.62 629.344 528.734V528.703C629.344 526.818 629.125 525.193 628.688 523.828C628.26 522.453 627.635 521.396 626.812 520.656C626 519.917 625.021 519.547 623.875 519.547C622.729 519.547 621.75 519.917 620.938 520.656C620.125 521.396 619.505 522.453 619.078 523.828C618.651 525.193 618.438 526.818 618.438 528.703V528.734C618.438 530.62 618.651 532.25 619.078 533.625C619.505 535 620.125 536.062 620.938 536.812C621.75 537.552 622.729 537.922 623.875 537.922Z" fill="#343434"/>
<path d="M662.578 540V520.438H662.516L656.547 524.594V521.766L662.547 517.453H665.297V540H662.578ZM676.766 540V520.438H676.703L670.734 524.594V521.766L676.734 517.453H679.484V540H676.766Z" fill="#343434"/>
<path d="M712.578 540V520.438H712.516L706.547 524.594V521.766L712.547 517.453H715.297V540H712.578ZM721.016 540V538.062L728.953 529.781C729.974 528.719 730.75 527.844 731.281 527.156C731.823 526.458 732.193 525.833 732.391 525.281C732.599 524.729 732.703 524.141 732.703 523.516V523.484C732.703 522.714 732.521 522.031 732.156 521.438C731.802 520.844 731.307 520.38 730.672 520.047C730.047 519.703 729.323 519.531 728.5 519.531C727.562 519.531 726.724 519.729 725.984 520.125C725.245 520.51 724.661 521.031 724.234 521.688C723.807 522.344 723.594 523.078 723.594 523.891V523.969H720.875V523.875C720.875 522.573 721.214 521.411 721.891 520.391C722.568 519.359 723.479 518.552 724.625 517.969C725.781 517.375 727.057 517.078 728.453 517.078C729.818 517.078 731.031 517.354 732.094 517.906C733.156 518.458 733.99 519.208 734.594 520.156C735.208 521.104 735.516 522.167 735.516 523.344V523.375C735.516 524.198 735.359 524.995 735.047 525.766C734.745 526.536 734.214 527.406 733.453 528.375C732.693 529.333 731.62 530.521 730.234 531.938L724.047 538.281L724.875 536.547V538.281L724.047 537.5H735.891V540H721.016Z" fill="#343434"/>
<rect x="143" y="231" width="12" height="237" rx="6" fill="#00E6BD"/>
<rect x="195" y="224" width="12" height="244" rx="6" fill="#00E6BD"/>
<rect x="247" y="208" width="12" height="263" rx="6" fill="#00E6BD"/>
<rect x="299" y="184" width="12" height="287" rx="6" fill="#00E6BD"/>
<rect x="351" y="154" width="12" height="317" rx="6" fill="#00E6BD"/>
<rect x="403" y="116" width="12" height="355" rx="6" fill="#00E6BD"/>
<rect x="455" y="82" width="12" height="389" rx="6" fill="#00E6BD"/>
<rect x="507" y="52" width="12" height="419" rx="6" fill="#00E6BD"/>
<rect x="559" y="52" width="12" height="419" rx="6" fill="#00E6BD"/>
<rect x="611" y="52" width="12" height="419" rx="6" fill="#00E6BD"/>
<rect x="663" y="68" width="12" height="403" rx="6" fill="#00E6BD"/>
<rect x="715" y="82" width="12" height="392" rx="6" fill="#00E6BD"/>
<g filter="url(#filter1_d_178_569)">
<rect x="24" y="20" width="748" height="560" rx="20" fill="white"/>
</g>
<path d="M63.5781 82V62.4375H63.5156L57.5469 66.5938V63.7656L63.5469 59.4531H66.2969V82H63.5781ZM79.7812 82.375C78.1875 82.375 76.776 82.099 75.5469 81.5469C74.3177 80.9948 73.349 80.2344 72.6406 79.2656C71.9427 78.2865 71.5938 77.1667 71.5938 75.9062V75.875C71.5938 74.9479 71.7969 74.0885 72.2031 73.2969C72.6094 72.5052 73.1771 71.8333 73.9062 71.2812C74.6354 70.7188 75.4792 70.3281 76.4375 70.1094V70.0469C75.2083 69.6615 74.2292 69.026 73.5 68.1406C72.7708 67.2552 72.4062 66.2188 72.4062 65.0312V65C72.4062 63.8646 72.724 62.8542 73.3594 61.9688C73.9948 61.0729 74.8698 60.3698 75.9844 59.8594C77.099 59.3385 78.3646 59.0781 79.7812 59.0781C81.2083 59.0781 82.474 59.3385 83.5781 59.8594C84.6927 60.3698 85.5677 61.0729 86.2031 61.9688C86.8385 62.8542 87.1562 63.8646 87.1562 65V65.0312C87.1562 66.2188 86.7917 67.2552 86.0625 68.1406C85.3438 69.026 84.3646 69.6615 83.125 70.0469V70.1094C84.0938 70.3281 84.9375 70.7188 85.6562 71.2812C86.3854 71.8333 86.9531 72.5052 87.3594 73.2969C87.7656 74.0885 87.9688 74.9479 87.9688 75.875V75.9062C87.9688 77.1667 87.6198 78.2865 86.9219 79.2656C86.224 80.2344 85.2552 80.9948 84.0156 81.5469C82.7865 82.099 81.375 82.375 79.7812 82.375ZM79.7812 79.9219C80.8229 79.9219 81.7396 79.7448 82.5312 79.3906C83.3333 79.026 83.9635 78.5312 84.4219 77.9062C84.8802 77.2708 85.1094 76.5469 85.1094 75.7344V75.7031C85.1094 74.8802 84.8802 74.151 84.4219 73.5156C83.974 72.8802 83.349 72.3802 82.5469 72.0156C81.7448 71.651 80.8229 71.4688 79.7812 71.4688C78.7396 71.4688 77.8177 71.651 77.0156 72.0156C76.2135 72.3802 75.5833 72.8802 75.125 73.5156C74.6771 74.151 74.4531 74.8802 74.4531 75.7031V75.7344C74.4531 76.5469 74.6823 77.2708 75.1406 77.9062C75.599 78.5312 76.2292 79.026 77.0312 79.3906C77.8333 79.7448 78.75 79.9219 79.7812 79.9219ZM79.7812 69C80.6875 69 81.4844 68.8438 82.1719 68.5312C82.8594 68.2083 83.3958 67.7656 83.7812 67.2031C84.1667 66.6406 84.3594 65.9948 84.3594 65.2656V65.2344C84.3594 64.5052 84.1667 63.8594 83.7812 63.2969C83.3958 62.7344 82.8594 62.2969 82.1719 61.9844C81.4844 61.6615 80.6875 61.5 79.7812 61.5C78.875 61.5 78.0781 61.6615 77.3906 61.9844C76.7031 62.2969 76.1667 62.7344 75.7812 63.2969C75.3958 63.8594 75.2031 64.5052 75.2031 65.2344V65.2656C75.2031 65.9948 75.3958 66.6406 75.7812 67.2031C76.1667 67.7656 76.7031 68.2083 77.3906 68.5312C78.0781 68.8438 78.875 69 79.7812 69ZM99.0625 82.375C97.3333 82.375 95.849 81.901 94.6094 80.9531C93.3802 80.0052 92.4375 78.6615 91.7812 76.9219C91.125 75.1823 90.7969 73.1198 90.7969 70.7344V70.7031C90.7969 68.3177 91.125 66.2552 91.7812 64.5156C92.4375 62.776 93.3802 61.4375 94.6094 60.5C95.849 59.5521 97.3333 59.0781 99.0625 59.0781C100.792 59.0781 102.276 59.5521 103.516 60.5C104.755 61.4375 105.703 62.776 106.359 64.5156C107.026 66.2552 107.359 68.3177 107.359 70.7031V70.7344C107.359 73.1198 107.026 75.1823 106.359 76.9219C105.703 78.6615 104.755 80.0052 103.516 80.9531C102.276 81.901 100.792 82.375 99.0625 82.375ZM99.0625 79.9219C100.208 79.9219 101.188 79.5521 102 78.8125C102.823 78.0625 103.448 77 103.875 75.625C104.312 74.25 104.531 72.6198 104.531 70.7344V70.7031C104.531 68.8177 104.312 67.1927 103.875 65.8281C103.448 64.4531 102.823 63.3958 102 62.6562C101.188 61.9167 100.208 61.5469 99.0625 61.5469C97.9167 61.5469 96.9375 61.9167 96.125 62.6562C95.3125 63.3958 94.6927 64.4531 94.2656 65.8281C93.8385 67.1927 93.625 68.8177 93.625 70.7031V70.7344C93.625 72.6198 93.8385 74.25 94.2656 75.625C94.6927 77 95.3125 78.0625 96.125 78.8125C96.9375 79.5521 97.9167 79.9219 99.0625 79.9219Z" fill="#999999"/>
<path d="M82.6875 460.375C80.9583 460.375 79.474 459.901 78.2344 458.953C77.0052 458.005 76.0625 456.661 75.4062 454.922C74.75 453.182 74.4219 451.12 74.4219 448.734V448.703C74.4219 446.318 74.75 444.255 75.4062 442.516C76.0625 440.776 77.0052 439.438 78.2344 438.5C79.474 437.552 80.9583 437.078 82.6875 437.078C84.4167 437.078 85.901 437.552 87.1406 438.5C88.3802 439.438 89.3281 440.776 89.9844 442.516C90.651 444.255 90.9844 446.318 90.9844 448.703V448.734C90.9844 451.12 90.651 453.182 89.9844 454.922C89.3281 456.661 88.3802 458.005 87.1406 458.953C85.901 459.901 84.4167 460.375 82.6875 460.375ZM82.6875 457.922C83.8333 457.922 84.8125 457.552 85.625 456.812C86.4479 456.062 87.0729 455 87.5 453.625C87.9375 452.25 88.1562 450.62 88.1562 448.734V448.703C88.1562 446.818 87.9375 445.193 87.5 443.828C87.0729 442.453 86.4479 441.396 85.625 440.656C84.8125 439.917 83.8333 439.547 82.6875 439.547C81.5417 439.547 80.5625 439.917 79.75 440.656C78.9375 441.396 78.3177 442.453 77.8906 443.828C77.4635 445.193 77.25 446.818 77.25 448.703V448.734C77.25 450.62 77.4635 452.25 77.8906 453.625C78.3177 455 78.9375 456.062 79.75 456.812C80.5625 457.552 81.5417 457.922 82.6875 457.922Z" fill="#999999"/>
<path d="M149.578 540V520.438H149.516L143.547 524.594V521.766L149.547 517.453H152.297V540H149.578Z" fill="#343434"/>
<path d="M253.422 540.375C251.87 540.375 250.516 540.109 249.359 539.578C248.203 539.047 247.286 538.318 246.609 537.391C245.943 536.464 245.557 535.406 245.453 534.219L245.438 534.031H248.141L248.156 534.188C248.24 534.927 248.505 535.578 248.953 536.141C249.411 536.703 250.021 537.146 250.781 537.469C251.542 537.781 252.422 537.938 253.422 537.938C254.411 537.938 255.276 537.766 256.016 537.422C256.766 537.078 257.349 536.604 257.766 536C258.182 535.385 258.391 534.682 258.391 533.891V533.859C258.391 532.474 257.927 531.411 257 530.672C256.083 529.922 254.833 529.547 253.25 529.547H250.422V527.172H253.125C254.021 527.172 254.812 527.005 255.5 526.672C256.188 526.328 256.724 525.865 257.109 525.281C257.495 524.688 257.688 524.016 257.688 523.266V523.234C257.688 522.443 257.521 521.771 257.188 521.219C256.854 520.667 256.365 520.245 255.719 519.953C255.083 519.661 254.307 519.516 253.391 519.516C252.505 519.516 251.714 519.667 251.016 519.969C250.328 520.26 249.776 520.682 249.359 521.234C248.943 521.786 248.693 522.443 248.609 523.203L248.594 523.359H245.891L245.906 523.203C246.031 521.974 246.417 520.901 247.062 519.984C247.719 519.068 248.583 518.354 249.656 517.844C250.74 517.333 251.984 517.078 253.391 517.078C254.828 517.078 256.078 517.328 257.141 517.828C258.214 518.318 259.042 519 259.625 519.875C260.219 520.74 260.516 521.745 260.516 522.891V522.922C260.516 523.849 260.312 524.672 259.906 525.391C259.5 526.109 258.938 526.708 258.219 527.188C257.5 527.667 256.672 528.005 255.734 528.203V528.266C257.38 528.401 258.708 528.958 259.719 529.938C260.74 530.906 261.25 532.193 261.25 533.797V533.828C261.25 535.078 260.911 536.198 260.234 537.188C259.557 538.177 258.63 538.958 257.453 539.531C256.276 540.094 254.932 540.375 253.422 540.375Z" fill="#343434"/>
<path d="M193.828 540V538.062L201.766 529.781C202.786 528.719 203.562 527.844 204.094 527.156C204.635 526.458 205.005 525.833 205.203 525.281C205.411 524.729 205.516 524.141 205.516 523.516V523.484C205.516 522.714 205.333 522.031 204.969 521.438C204.615 520.844 204.12 520.38 203.484 520.047C202.859 519.703 202.135 519.531 201.312 519.531C200.375 519.531 199.536 519.729 198.797 520.125C198.057 520.51 197.474 521.031 197.047 521.688C196.62 522.344 196.406 523.078 196.406 523.891V523.969H193.688V523.875C193.688 522.573 194.026 521.411 194.703 520.391C195.38 519.359 196.292 518.552 197.438 517.969C198.594 517.375 199.87 517.078 201.266 517.078C202.63 517.078 203.844 517.354 204.906 517.906C205.969 518.458 206.802 519.208 207.406 520.156C208.021 521.104 208.328 522.167 208.328 523.344V523.375C208.328 524.198 208.172 524.995 207.859 525.766C207.557 526.536 207.026 527.406 206.266 528.375C205.505 529.333 204.432 530.521 203.047 531.938L196.859 538.281L197.688 536.547V538.281L196.859 537.5H208.703V540H193.828Z" fill="#343434"/>
<path d="M307.547 540V535.312H296.219V532.766C296.875 531.745 297.531 530.724 298.188 529.703C298.854 528.682 299.516 527.661 300.172 526.641C300.839 525.62 301.5 524.599 302.156 523.578C302.812 522.557 303.469 521.536 304.125 520.516C304.792 519.495 305.453 518.474 306.109 517.453H310.266V532.844H313.453V535.312H310.266V540H307.547ZM299 532.844H307.547V519.859H307.453C306.891 520.724 306.328 521.589 305.766 522.453C305.203 523.307 304.641 524.167 304.078 525.031C303.516 525.885 302.948 526.745 302.375 527.609C301.812 528.474 301.25 529.339 300.688 530.203C300.125 531.057 299.562 531.917 299 532.781V532.844Z" fill="#343434"/>
<path d="M357.578 540.375C356.141 540.375 354.859 540.099 353.734 539.547C352.62 538.995 351.724 538.24 351.047 537.281C350.37 536.323 349.974 535.234 349.859 534.016L349.844 533.844H352.609L352.625 533.969C352.719 534.708 352.99 535.38 353.438 535.984C353.885 536.578 354.469 537.047 355.188 537.391C355.906 537.734 356.714 537.906 357.609 537.906C358.63 537.906 359.531 537.688 360.312 537.25C361.094 536.812 361.703 536.208 362.141 535.438C362.578 534.656 362.797 533.76 362.797 532.75V532.719C362.797 531.729 362.573 530.854 362.125 530.094C361.688 529.323 361.083 528.719 360.312 528.281C359.542 527.844 358.656 527.625 357.656 527.625C356.896 527.625 356.188 527.74 355.531 527.969C354.885 528.188 354.312 528.526 353.812 528.984C353.615 529.172 353.422 529.375 353.234 529.594C353.057 529.812 352.896 530.052 352.75 530.312H350.266L351.422 517.453H364.328V519.953H353.734L352.969 527.531H353.031C353.385 527.021 353.823 526.594 354.344 526.25C354.865 525.906 355.448 525.646 356.094 525.469C356.74 525.292 357.427 525.203 358.156 525.203C359.604 525.203 360.885 525.526 362 526.172C363.125 526.818 364.005 527.703 364.641 528.828C365.286 529.943 365.609 531.224 365.609 532.672V532.703C365.609 534.203 365.266 535.531 364.578 536.688C363.891 537.844 362.943 538.75 361.734 539.406C360.526 540.052 359.141 540.375 357.578 540.375Z" fill="#343434"/>
<path d="M408.984 540.375C407.943 540.375 406.917 540.182 405.906 539.797C404.896 539.401 403.974 538.766 403.141 537.891C402.318 537.016 401.656 535.865 401.156 534.438C400.667 533 400.422 531.234 400.422 529.141V529.109C400.422 526.578 400.766 524.417 401.453 522.625C402.151 520.823 403.151 519.448 404.453 518.5C405.766 517.552 407.339 517.078 409.172 517.078C410.453 517.078 411.604 517.307 412.625 517.766C413.656 518.214 414.516 518.849 415.203 519.672C415.891 520.495 416.359 521.453 416.609 522.547L416.656 522.75H413.797L413.734 522.578C413.516 521.953 413.193 521.417 412.766 520.969C412.339 520.521 411.818 520.177 411.203 519.938C410.599 519.688 409.911 519.562 409.141 519.562C407.745 519.562 406.615 519.969 405.75 520.781C404.885 521.594 404.245 522.667 403.828 524C403.422 525.333 403.198 526.792 403.156 528.375C403.146 528.479 403.141 528.583 403.141 528.688C403.141 528.781 403.141 528.88 403.141 528.984L403.812 532.688C403.812 533.646 404.036 534.521 404.484 535.312C404.943 536.094 405.562 536.719 406.344 537.188C407.125 537.646 407.995 537.875 408.953 537.875C409.911 537.875 410.781 537.651 411.562 537.203C412.344 536.745 412.964 536.13 413.422 535.359C413.88 534.589 414.109 533.729 414.109 532.781V532.75C414.109 531.771 413.891 530.901 413.453 530.141C413.016 529.38 412.411 528.786 411.641 528.359C410.87 527.922 409.99 527.703 409 527.703C408.021 527.703 407.135 527.917 406.344 528.344C405.562 528.771 404.943 529.359 404.484 530.109C404.036 530.859 403.812 531.714 403.812 532.672V532.688H402.875V528.859H403.203C403.505 528.193 403.953 527.589 404.547 527.047C405.151 526.495 405.87 526.057 406.703 525.734C407.536 525.401 408.464 525.234 409.484 525.234C410.922 525.234 412.203 525.557 413.328 526.203C414.453 526.849 415.339 527.734 415.984 528.859C416.641 529.984 416.969 531.26 416.969 532.688V532.719C416.969 534.198 416.62 535.516 415.922 536.672C415.234 537.818 414.292 538.724 413.094 539.391C411.896 540.047 410.526 540.375 408.984 540.375Z" fill="#343434"/>
<path d="M455.125 540L465.328 520.016V519.953H453.188V517.453H468.109V520.062L458.078 540H455.125Z" fill="#343434"/>
<path d="M512.594 540.375C511 540.375 509.589 540.099 508.359 539.547C507.13 538.995 506.161 538.234 505.453 537.266C504.755 536.286 504.406 535.167 504.406 533.906V533.875C504.406 532.948 504.609 532.089 505.016 531.297C505.422 530.505 505.99 529.833 506.719 529.281C507.448 528.719 508.292 528.328 509.25 528.109V528.047C508.021 527.661 507.042 527.026 506.312 526.141C505.583 525.255 505.219 524.219 505.219 523.031V523C505.219 521.865 505.536 520.854 506.172 519.969C506.807 519.073 507.682 518.37 508.797 517.859C509.911 517.339 511.177 517.078 512.594 517.078C514.021 517.078 515.286 517.339 516.391 517.859C517.505 518.37 518.38 519.073 519.016 519.969C519.651 520.854 519.969 521.865 519.969 523V523.031C519.969 524.219 519.604 525.255 518.875 526.141C518.156 527.026 517.177 527.661 515.938 528.047V528.109C516.906 528.328 517.75 528.719 518.469 529.281C519.198 529.833 519.766 530.505 520.172 531.297C520.578 532.089 520.781 532.948 520.781 533.875V533.906C520.781 535.167 520.432 536.286 519.734 537.266C519.036 538.234 518.068 538.995 516.828 539.547C515.599 540.099 514.188 540.375 512.594 540.375ZM512.594 537.922C513.635 537.922 514.552 537.745 515.344 537.391C516.146 537.026 516.776 536.531 517.234 535.906C517.693 535.271 517.922 534.547 517.922 533.734V533.703C517.922 532.88 517.693 532.151 517.234 531.516C516.786 530.88 516.161 530.38 515.359 530.016C514.557 529.651 513.635 529.469 512.594 529.469C511.552 529.469 510.63 529.651 509.828 530.016C509.026 530.38 508.396 530.88 507.938 531.516C507.49 532.151 507.266 532.88 507.266 533.703V533.734C507.266 534.547 507.495 535.271 507.953 535.906C508.411 536.531 509.042 537.026 509.844 537.391C510.646 537.745 511.562 537.922 512.594 537.922ZM512.594 527C513.5 527 514.297 526.844 514.984 526.531C515.672 526.208 516.208 525.766 516.594 525.203C516.979 524.641 517.172 523.995 517.172 523.266V523.234C517.172 522.505 516.979 521.859 516.594 521.297C516.208 520.734 515.672 520.297 514.984 519.984C514.297 519.661 513.5 519.5 512.594 519.5C511.688 519.5 510.891 519.661 510.203 519.984C509.516 520.297 508.979 520.734 508.594 521.297C508.208 521.859 508.016 522.505 508.016 523.234V523.266C508.016 523.995 508.208 524.641 508.594 525.203C508.979 525.766 509.516 526.208 510.203 526.531C510.891 526.844 511.688 527 512.594 527Z" fill="#343434"/>
<path d="M564.766 517.078C565.807 517.078 566.833 517.276 567.844 517.672C568.854 518.057 569.771 518.688 570.594 519.562C571.427 520.438 572.089 521.594 572.578 523.031C573.078 524.458 573.328 526.219 573.328 528.312V528.344C573.328 530.875 572.979 533.042 572.281 534.844C571.594 536.635 570.599 538.005 569.297 538.953C567.995 539.901 566.422 540.375 564.578 540.375C563.307 540.375 562.156 540.146 561.125 539.688C560.094 539.229 559.234 538.594 558.547 537.781C557.859 536.958 557.391 536 557.141 534.906L557.094 534.703H559.953L560.016 534.875C560.245 535.49 560.568 536.026 560.984 536.484C561.411 536.932 561.927 537.281 562.531 537.531C563.146 537.771 563.839 537.891 564.609 537.891C566.016 537.891 567.146 537.484 568 536.672C568.865 535.859 569.5 534.786 569.906 533.453C570.323 532.109 570.552 530.651 570.594 529.078C570.604 528.974 570.609 528.875 570.609 528.781C570.609 528.677 570.609 528.573 570.609 528.469L569.938 524.766C569.938 523.797 569.708 522.922 569.25 522.141C568.802 521.359 568.188 520.74 567.406 520.281C566.635 519.812 565.766 519.578 564.797 519.578C563.839 519.578 562.969 519.807 562.188 520.266C561.406 520.714 560.786 521.323 560.328 522.094C559.87 522.865 559.641 523.724 559.641 524.672V524.703C559.641 525.682 559.859 526.552 560.297 527.312C560.734 528.073 561.339 528.672 562.109 529.109C562.88 529.536 563.76 529.75 564.75 529.75C565.74 529.75 566.625 529.536 567.406 529.109C568.188 528.682 568.802 528.094 569.25 527.344C569.708 526.594 569.938 525.74 569.938 524.781V524.766H570.875V528.594H570.547C570.245 529.26 569.797 529.87 569.203 530.422C568.609 530.964 567.891 531.401 567.047 531.734C566.214 532.057 565.286 532.219 564.266 532.219C562.839 532.219 561.557 531.896 560.422 531.25C559.297 530.604 558.406 529.719 557.75 528.594C557.104 527.469 556.781 526.193 556.781 524.766V524.734C556.781 523.255 557.125 521.943 557.812 520.797C558.51 519.641 559.458 518.734 560.656 518.078C561.854 517.411 563.224 517.078 564.766 517.078Z" fill="#343434"/>
<path d="M607.578 540V520.438H607.516L601.547 524.594V521.766L607.547 517.453H610.297V540H607.578ZM623.875 540.375C622.146 540.375 620.661 539.901 619.422 538.953C618.193 538.005 617.25 536.661 616.594 534.922C615.938 533.182 615.609 531.12 615.609 528.734V528.703C615.609 526.318 615.938 524.255 616.594 522.516C617.25 520.776 618.193 519.438 619.422 518.5C620.661 517.552 622.146 517.078 623.875 517.078C625.604 517.078 627.089 517.552 628.328 518.5C629.568 519.438 630.516 520.776 631.172 522.516C631.839 524.255 632.172 526.318 632.172 528.703V528.734C632.172 531.12 631.839 533.182 631.172 534.922C630.516 536.661 629.568 538.005 628.328 538.953C627.089 539.901 625.604 540.375 623.875 540.375ZM623.875 537.922C625.021 537.922 626 537.552 626.812 536.812C627.635 536.062 628.26 535 628.688 533.625C629.125 532.25 629.344 530.62 629.344 528.734V528.703C629.344 526.818 629.125 525.193 628.688 523.828C628.26 522.453 627.635 521.396 626.812 520.656C626 519.917 625.021 519.547 623.875 519.547C622.729 519.547 621.75 519.917 620.938 520.656C620.125 521.396 619.505 522.453 619.078 523.828C618.651 525.193 618.438 526.818 618.438 528.703V528.734C618.438 530.62 618.651 532.25 619.078 533.625C619.505 535 620.125 536.062 620.938 536.812C621.75 537.552 622.729 537.922 623.875 537.922Z" fill="#343434"/>
<path d="M662.578 540V520.438H662.516L656.547 524.594V521.766L662.547 517.453H665.297V540H662.578ZM676.766 540V520.438H676.703L670.734 524.594V521.766L676.734 517.453H679.484V540H676.766Z" fill="#343434"/>
<path d="M712.578 540V520.438H712.516L706.547 524.594V521.766L712.547 517.453H715.297V540H712.578ZM721.016 540V538.062L728.953 529.781C729.974 528.719 730.75 527.844 731.281 527.156C731.823 526.458 732.193 525.833 732.391 525.281C732.599 524.729 732.703 524.141 732.703 523.516V523.484C732.703 522.714 732.521 522.031 732.156 521.438C731.802 520.844 731.307 520.38 730.672 520.047C730.047 519.703 729.323 519.531 728.5 519.531C727.562 519.531 726.724 519.729 725.984 520.125C725.245 520.51 724.661 521.031 724.234 521.688C723.807 522.344 723.594 523.078 723.594 523.891V523.969H720.875V523.875C720.875 522.573 721.214 521.411 721.891 520.391C722.568 519.359 723.479 518.552 724.625 517.969C725.781 517.375 727.057 517.078 728.453 517.078C729.818 517.078 731.031 517.354 732.094 517.906C733.156 518.458 733.99 519.208 734.594 520.156C735.208 521.104 735.516 522.167 735.516 523.344V523.375C735.516 524.198 735.359 524.995 735.047 525.766C734.745 526.536 734.214 527.406 733.453 528.375C732.693 529.333 731.62 530.521 730.234 531.938L724.047 538.281L724.875 536.547V538.281L724.047 537.5H735.891V540H721.016Z" fill="#343434"/>
<rect x="143" y="231" width="12" height="237" rx="6" fill="#00E6BD"/>
<rect x="195" y="224" width="12" height="244" rx="6" fill="#00E6BD"/>
<rect x="247" y="208" width="12" height="263" rx="6" fill="#00E6BD"/>
<rect x="299" y="184" width="12" height="287" rx="6" fill="#00E6BD"/>
<rect x="351" y="154" width="12" height="317" rx="6" fill="#00E6BD"/>
<rect x="403" y="116" width="12" height="355" rx="6" fill="#00E6BD"/>
<rect x="455" y="82" width="12" height="389" rx="6" fill="#00E6BD"/>
<rect x="507" y="52" width="12" height="419" rx="6" fill="#00E6BD"/>
<rect x="559" y="52" width="12" height="419" rx="6" fill="#00E6BD"/>
<rect x="611" y="52" width="12" height="419" rx="6" fill="#00E6BD"/>
<rect x="663" y="68" width="12" height="403" rx="6" fill="#00E6BD"/>
<rect x="715" y="82" width="12" height="392" rx="6" fill="#00E6BD"/>
<defs>
<filter id="filter0_d_178_569" x="0" y="0" width="796" height="608" filterUnits="userSpaceOnUse" color-interpolation-filters="sRGB">
<feFlood flood-opacity="0" result="BackgroundImageFix"/>
<feColorMatrix in="SourceAlpha" type="matrix" values="0 0 0 0 0 0 0 0 0 0 0 0 0 0 0 0 0 0 127 0" result="hardAlpha"/>
<feMorphology radius="4" operator="dilate" in="SourceAlpha" result="effect1_dropShadow_178_569"/>
<feOffset dy="4"/>
<feGaussianBlur stdDeviation="10"/>
<feComposite in2="hardAlpha" operator="out"/>
<feColorMatrix type="matrix" values="0 0 0 0 0 0 0 0 0 0 0 0 0 0 0 0 0 0 0.1 0"/>
<feBlend mode="normal" in2="BackgroundImageFix" result="effect1_dropShadow_178_569"/>
<feBlend mode="normal" in="SourceGraphic" in2="effect1_dropShadow_178_569" result="shape"/>
</filter>
<filter id="filter1_d_178_569" x="0" y="0" width="796" height="608" filterUnits="userSpaceOnUse" color-interpolation-filters="sRGB">
<feFlood flood-opacity="0" result="BackgroundImageFix"/>
<feColorMatrix in="SourceAlpha" type="matrix" values="0 0 0 0 0 0 0 0 0 0 0 0 0 0 0 0 0 0 127 0" result="hardAlpha"/>
<feMorphology radius="4" operator="dilate" in="SourceAlpha" result="effect1_dropShadow_178_569"/>
<feOffset dy="4"/>
<feGaussianBlur stdDeviation="10"/>
<feComposite in2="hardAlpha" operator="out"/>
<feColorMatrix type="matrix" values="0 0 0 0 0 0 0 0 0 0 0 0 0 0 0 0 0 0 0.1 0"/>
<feBlend mode="normal" in2="BackgroundImageFix" result="effect1_dropShadow_178_569"/>
<feBlend mode="normal" in="SourceGraphic" in2="effect1_dropShadow_178_569" result="shape"/>
</filter>
</defs>
</svg>
