<svg width="74" height="36" viewBox="0 0 74 36" fill="none" xmlns="http://www.w3.org/2000/svg">
<circle cx="18" cy="18" r="18" fill="#050505"/>
<path d="M8.66504 25V9.49902H14.7344C15.7943 9.49902 16.7109 9.69238 17.4844 10.0791C18.2578 10.4658 18.8522 11.0137 19.2676 11.7227C19.6901 12.4316 19.9014 13.2695 19.9014 14.2363V14.2578C19.9014 15.3105 19.6328 16.2308 19.0957 17.0186C18.5658 17.8063 17.8353 18.3613 16.9043 18.6836L20.374 25H17.5811L14.4229 19.0488C14.4014 19.0488 14.3799 19.0488 14.3584 19.0488C14.3369 19.0488 14.3154 19.0488 14.2939 19.0488H11.082V25H8.66504ZM11.082 17.083H14.498C15.429 17.083 16.1488 16.8395 16.6572 16.3525C17.1657 15.8656 17.4199 15.1816 17.4199 14.3008V14.2793C17.4199 13.4199 17.1514 12.7467 16.6143 12.2598C16.0843 11.7656 15.3574 11.5186 14.4336 11.5186H11.082V17.083ZM26.5031 25.2256C25.3787 25.2256 24.4119 24.9857 23.6027 24.5059C22.8006 24.0189 22.1811 23.3314 21.7443 22.4434C21.3146 21.5553 21.0998 20.5062 21.0998 19.2959V19.2852C21.0998 18.0892 21.3146 17.0436 21.7443 16.1484C22.1811 15.2533 22.7935 14.555 23.5812 14.0537C24.3761 13.5524 25.3071 13.3018 26.3742 13.3018C27.4484 13.3018 28.3722 13.5417 29.1457 14.0215C29.9263 14.5013 30.5242 15.1745 30.9396 16.041C31.355 16.9076 31.5627 17.9137 31.5627 19.0596V19.8652H22.2707V18.2109H30.424L29.2853 19.7471V18.834C29.2853 18.0176 29.16 17.3444 28.9093 16.8145C28.6658 16.2773 28.3257 15.8763 27.8888 15.6113C27.4591 15.3464 26.9614 15.2139 26.3957 15.2139C25.8299 15.2139 25.3214 15.3535 24.8703 15.6328C24.4263 15.9049 24.0754 16.3132 23.8175 16.8574C23.5669 17.3945 23.4416 18.0534 23.4416 18.834V19.7471C23.4416 20.499 23.5669 21.14 23.8175 21.6699C24.0682 22.1999 24.4263 22.6081 24.8918 22.8945C25.3573 23.1738 25.9123 23.3135 26.5568 23.3135C27.0295 23.3135 27.4448 23.2454 27.8029 23.1094C28.161 22.9661 28.4546 22.7835 28.6838 22.5615C28.9129 22.3395 29.074 22.1068 29.1671 21.8633L29.1994 21.7773H31.4445L31.4123 21.874C31.3192 22.2965 31.1437 22.7083 30.8859 23.1094C30.6352 23.5033 30.3022 23.8613 29.8869 24.1836C29.4787 24.4987 28.9917 24.7529 28.4259 24.9463C27.8602 25.1325 27.2192 25.2256 26.5031 25.2256Z" fill="#00E6BD"/>
<path d="M37.7944 25V9.14453H40.1255V15.3428H40.2436C40.5373 14.6982 40.9705 14.1969 41.5434 13.8389C42.1235 13.4808 42.8361 13.3018 43.6811 13.3018C44.519 13.3018 45.2388 13.4808 45.8403 13.8389C46.4419 14.1969 46.9038 14.709 47.2261 15.375C47.5483 16.041 47.7095 16.8324 47.7095 17.749V25H45.3784V18.2324C45.3784 17.2871 45.1636 16.5638 44.7339 16.0625C44.3042 15.554 43.6704 15.2998 42.8325 15.2998C42.2882 15.2998 41.812 15.4251 41.4038 15.6758C41.0027 15.9264 40.6876 16.2773 40.4585 16.7285C40.2365 17.1797 40.1255 17.7061 40.1255 18.3076V25H37.7944ZM53.6452 25.2256C52.7929 25.2256 52.0732 25.0573 51.486 24.7207C50.8987 24.377 50.4547 23.8864 50.1539 23.249C49.8532 22.6117 49.7028 21.8454 49.7028 20.9502V13.5273H52.0338V20.4561C52.0338 21.3656 52.2272 22.0531 52.6139 22.5186C53.0078 22.984 53.6165 23.2168 54.4401 23.2168C54.8769 23.2168 55.2636 23.1488 55.6002 23.0127C55.944 22.8695 56.234 22.6689 56.4704 22.4111C56.7138 22.1533 56.8965 21.8418 57.0182 21.4766C57.1471 21.1042 57.2116 20.6924 57.2116 20.2412V13.5273H59.5426V25H57.2116V23.2705H57.0934C56.9 23.6644 56.6422 24.0081 56.32 24.3018C56.0049 24.5954 55.6217 24.8245 55.1705 24.9893C54.7194 25.1468 54.2109 25.2256 53.6452 25.2256ZM67.7879 25.2148C67.2508 25.2148 66.7531 25.1289 66.2947 24.957C65.8364 24.7852 65.4318 24.5452 65.0809 24.2373C64.7371 23.9294 64.4542 23.557 64.2322 23.1201H64.1141V25H61.783V9.14453H64.1141V15.4072H64.2322C64.4471 14.9775 64.7299 14.6087 65.0809 14.3008C65.4389 13.9857 65.8471 13.7422 66.3055 13.5703C66.771 13.3984 67.2687 13.3125 67.7986 13.3125C68.7726 13.3125 69.6141 13.556 70.323 14.043C71.032 14.5228 71.5835 15.2067 71.9773 16.0947C72.3712 16.9827 72.5682 18.0355 72.5682 19.2529V19.2637C72.5682 20.4811 72.3712 21.5339 71.9773 22.4219C71.5906 23.3099 71.0392 23.9974 70.323 24.4844C69.6069 24.9714 68.7618 25.2148 67.7879 25.2148ZM67.1541 23.2061C67.7843 23.2061 68.325 23.0485 68.7762 22.7334C69.2273 22.4183 69.5747 21.9671 69.8182 21.3799C70.0688 20.7855 70.1941 20.0801 70.1941 19.2637V19.2529C70.1941 18.4365 70.0688 17.7347 69.8182 17.1475C69.5747 16.5602 69.2273 16.109 68.7762 15.7939C68.325 15.4717 67.7843 15.3105 67.1541 15.3105C66.5382 15.3105 66.0011 15.4717 65.5428 15.7939C65.0844 16.1162 64.7264 16.5745 64.4686 17.1689C64.2179 17.7562 64.0926 18.4508 64.0926 19.2529V19.2744C64.0926 20.0765 64.2179 20.7747 64.4686 21.3691C64.7264 21.9564 65.0844 22.4111 65.5428 22.7334C66.0011 23.0485 66.5382 23.2061 67.1541 23.2061Z" fill="black"/>
</svg>
