<svg width="145" height="38" viewBox="0 0 145 38" fill="none" xmlns="http://www.w3.org/2000/svg">
<path d="M0.224609 37V0.361328H14.8496C17.4564 0.361328 19.6992 0.826823 21.5781 1.75781C23.457 2.67188 24.9043 3.98372 25.9199 5.69336C26.9355 7.40299 27.4434 9.43424 27.4434 11.7871V11.8379C27.4434 14.3092 26.8171 16.4759 25.5645 18.3379C24.3288 20.1999 22.653 21.5202 20.5371 22.2988L28.5352 37H21.0703L13.8594 23.2891C13.8086 23.2891 13.7493 23.2891 13.6816 23.2891C13.6309 23.2891 13.5801 23.2891 13.5293 23.2891H6.77539V37H0.224609ZM6.77539 18.1094H14.1641C16.2461 18.1094 17.8626 17.5677 19.0137 16.4844C20.1647 15.3841 20.7402 13.8522 20.7402 11.8887V11.8379C20.7402 9.92513 20.1393 8.41862 18.9375 7.31836C17.7357 6.20117 16.1022 5.64258 14.0371 5.64258H6.77539V18.1094ZM43.7695 37.5332C41.0781 37.5332 38.7591 36.9661 36.8125 35.832C34.8828 34.6979 33.4017 33.0898 32.3691 31.0078C31.3366 28.9258 30.8203 26.4629 30.8203 23.6191V23.5938C30.8203 20.7669 31.3366 18.304 32.3691 16.2051C33.4186 14.0892 34.8828 12.4473 36.7617 11.2793C38.6576 10.1113 40.8919 9.52734 43.4648 9.52734C46.0208 9.52734 48.2298 10.0944 50.0918 11.2285C51.9707 12.3457 53.4095 13.9199 54.4082 15.9512C55.4238 17.9824 55.9316 20.3522 55.9316 23.0605V25.0918H33.9434V20.877H52.9102L49.8633 24.8125V22.375C49.8633 20.6146 49.5924 19.1504 49.0508 17.9824C48.5091 16.8145 47.7643 15.9427 46.8164 15.3672C45.8685 14.7747 44.7767 14.4785 43.541 14.4785C42.2884 14.4785 41.1712 14.7832 40.1895 15.3926C39.2246 15.985 38.4629 16.8737 37.9043 18.0586C37.3626 19.2435 37.0918 20.6823 37.0918 22.375V24.8125C37.0918 26.4544 37.3626 27.8594 37.9043 29.0273C38.4629 30.1784 39.25 31.0671 40.2656 31.6934C41.2812 32.3027 42.4915 32.6074 43.8965 32.6074C44.946 32.6074 45.8685 32.4466 46.6641 32.125C47.4596 31.7865 48.1113 31.3548 48.6191 30.8301C49.1439 30.3053 49.5078 29.7383 49.7109 29.1289L49.7617 28.9512H55.6523L55.6016 29.2305C55.3815 30.263 54.9753 31.2786 54.3828 32.2773C53.7904 33.2591 52.9948 34.1478 51.9961 34.9434C50.9974 35.7389 49.8125 36.3737 48.4414 36.8477C47.0703 37.3047 45.513 37.5332 43.7695 37.5332Z" fill="#21D0B1"/>
<path d="M60.1465 37V0.361328H66.4688V14.6055H66.5957C67.3066 12.9805 68.3646 11.7279 69.7695 10.8477C71.1914 9.96745 72.901 9.52734 74.8984 9.52734C76.8451 9.52734 78.5293 9.97591 79.9512 10.873C81.373 11.7533 82.4733 12.9974 83.252 14.6055C84.0306 16.1966 84.4199 18.0755 84.4199 20.2422V37H78.0977V21.4863C78.0977 19.4212 77.5983 17.8047 76.5996 16.6367C75.6009 15.4518 74.196 14.8594 72.3848 14.8594C71.1999 14.8594 70.1589 15.1471 69.2617 15.7227C68.3815 16.2812 67.696 17.0599 67.2051 18.0586C66.7142 19.0404 66.4688 20.1829 66.4688 21.4863V37H60.1465ZM98.6895 37.5332C96.709 37.5332 95.0247 37.1354 93.6367 36.3398C92.2656 35.5273 91.2161 34.3678 90.4883 32.8613C89.7604 31.3548 89.3965 29.569 89.3965 27.5039V10.0859H95.6934V26.2344C95.6934 28.1471 96.1419 29.6283 97.0391 30.6777C97.9362 31.7103 99.2904 32.2266 101.102 32.2266C101.999 32.2266 102.811 32.0742 103.539 31.7695C104.284 31.4479 104.919 30.9993 105.443 30.4238C105.968 29.8483 106.366 29.1628 106.637 28.3672C106.908 27.5547 107.043 26.6576 107.043 25.6758V10.0859H113.365V37H107.043V32.7852H106.916C106.442 33.7331 105.824 34.571 105.062 35.2988C104.301 36.0098 103.387 36.5599 102.32 36.9492C101.254 37.3385 100.044 37.5332 98.6895 37.5332ZM133.576 37.5332C132.29 37.5332 131.105 37.3301 130.021 36.9238C128.955 36.5007 128.016 35.9167 127.203 35.1719C126.391 34.4102 125.722 33.4961 125.197 32.4297H125.07V37H118.748V0.361328H125.07V14.707H125.197C125.722 13.6237 126.399 12.7012 127.229 11.9395C128.058 11.1608 129.014 10.5684 130.098 10.1621C131.181 9.73893 132.357 9.52734 133.627 9.52734C135.878 9.52734 137.833 10.0944 139.492 11.2285C141.151 12.3457 142.438 13.9538 143.352 16.0527C144.266 18.1348 144.723 20.623 144.723 23.5176V23.543C144.723 26.4206 144.266 28.9089 143.352 31.0078C142.454 33.1068 141.168 34.7233 139.492 35.8574C137.833 36.9746 135.861 37.5332 133.576 37.5332ZM131.697 32.2266C133.051 32.2266 134.219 31.8796 135.201 31.1855C136.2 30.4746 136.962 29.4674 137.486 28.1641C138.011 26.8607 138.273 25.3203 138.273 23.543V23.5176C138.273 21.7233 138.003 20.1829 137.461 18.8965C136.936 17.61 136.183 16.6198 135.201 15.9258C134.219 15.2148 133.051 14.8594 131.697 14.8594C130.394 14.8594 129.243 15.2148 128.244 15.9258C127.262 16.6367 126.484 17.6439 125.908 18.9473C125.333 20.2337 125.045 21.7572 125.045 23.5176V23.543C125.045 25.3034 125.324 26.8353 125.883 28.1387C126.458 29.4421 127.245 30.4492 128.244 31.1602C129.243 31.8711 130.394 32.2266 131.697 32.2266Z" fill="black"/>
</svg>
