<svg width="25" height="27" viewBox="0 0 25 27" fill="none" xmlns="http://www.w3.org/2000/svg">
<path d="M2.85938 26.9688C2.28646 26.9688 1.82812 26.7604 1.48438 26.3438C1.15104 25.9375 0.984375 25.3958 0.984375 24.7188V2.75C0.984375 2.07292 1.15104 1.53125 1.48438 1.125C1.82812 0.71875 2.28646 0.515625 2.85938 0.515625C3.17188 0.515625 3.46875 0.572917 3.75 0.6875C4.03125 0.791667 4.32812 0.932292 4.64062 1.10938L22.8594 11.6562C23.5156 12.0312 23.9688 12.3698 24.2188 12.6719C24.4792 12.9635 24.6094 13.3177 24.6094 13.7344C24.6094 14.151 24.4792 14.5104 24.2188 14.8125C23.9688 15.1042 23.5156 15.4427 22.8594 15.8281L4.64062 26.3594C4.32812 26.5469 4.03125 26.6927 3.75 26.7969C3.46875 26.9115 3.17188 26.9688 2.85938 26.9688Z" fill="#343434"/>
</svg>
