<svg width="45" height="58" viewBox="0 0 45 58" fill="none" xmlns="http://www.w3.org/2000/svg">
<path d="M27.8125 12.6953C24.5547 12.6953 21.9062 10.0234 21.9062 6.76562C21.9062 3.50781 24.5547 0.859375 27.8125 0.859375C31.0703 0.859375 33.7422 3.50781 33.7422 6.76562C33.7422 10.0234 31.0703 12.6953 27.8125 12.6953ZM18.8359 34.6562C16.6562 33.4375 13.6094 32.1719 14.9219 27.5547L16.9375 20.4062C17.1016 19.8203 16.7031 19.4688 16.1172 19.4922L12.9531 19.7266L11.9453 26.6406C11.6875 28.4453 10.6094 29.4062 8.99219 29.2656C7.30469 29.0781 6.36719 27.7656 6.60156 25.9609L7.79688 17.0547C8.03125 15.4141 9.17969 14.3359 10.75 14.2188L19.5625 13.6094C24.2031 13.2812 27.1797 14.5234 29.5703 17.8281L33.6953 23.5L39.6484 20.875C41.2656 20.1719 42.7188 20.6406 43.4219 22.0703C44.1484 23.5703 43.5156 25.0703 41.8984 25.8203L33.9531 29.3594C32.7578 29.8984 31.3047 29.5234 30.5547 28.4219L27.7891 24.3672C27.4375 23.8281 26.8281 23.9219 26.6641 24.4844L24.9062 30.6484L34.0234 36.6016C35.6641 37.6797 35.9219 40.1641 34.5156 41.3828L25.8906 48.7422C24.4141 49.9609 22.6797 49.9609 21.5781 48.7422C20.5 47.5469 20.7344 45.7656 22.1172 44.6172L27.8125 39.7188L18.8359 34.6562ZM2.00781 56.1719C0.671875 55.0469 0.601562 53.1016 2.00781 51.7422L10.3516 43.4688L13.0469 33.9062C14.0312 35.0547 15.4609 36.1562 17.3828 37.2109L18.6953 37.9375L15.6719 45.7656C15.2734 46.8438 15.1094 47.0781 14.3359 47.8281L6.25 55.8438C4.9375 57.1328 3.22656 57.25 2.00781 56.1719Z" fill="#343434"/>
</svg>
