<svg width="57" height="46" viewBox="0 0 57 46" fill="none" xmlns="http://www.w3.org/2000/svg">
<path d="M43.1172 32.9219V3.36719C43.1172 1.70312 44.1953 0.648438 45.8359 0.648438H50.7344C52.375 0.648438 53.4297 1.70312 53.4297 3.36719V32.9219C53.4297 34.5625 52.375 35.6172 50.7344 35.6172H45.8359C44.1953 35.6172 43.1172 34.5625 43.1172 32.9219ZM30.1328 32.9219V9.88281C30.1328 8.19531 31.1875 7.16406 32.8281 7.16406H37.7266C39.3906 7.16406 40.4453 8.19531 40.4453 9.88281V32.9219C40.4453 34.5625 39.3906 35.6172 37.7266 35.6172H32.8281C31.1875 35.6172 30.1328 34.5625 30.1328 32.9219ZM17.1953 32.9219V16.375C17.1953 14.7344 18.2734 13.6797 19.9141 13.6797H24.8125C26.4531 13.6797 27.5078 14.7344 27.5078 16.375V32.9219C27.5078 34.5625 26.4531 35.6172 24.8125 35.6172H19.9141C18.2734 35.6172 17.1953 34.5625 17.1953 32.9219ZM4.16406 32.9219V22.8906C4.16406 21.25 5.21875 20.1719 6.88281 20.1719H11.7812C13.3984 20.1719 14.4766 21.25 14.4766 22.8906V32.9219C14.4766 34.5625 13.3984 35.6172 11.7812 35.6172H6.88281C5.21875 35.6172 4.16406 34.5625 4.16406 32.9219ZM3.97656 45.5547C2.28906 45.5547 0.976562 44.3359 0.976562 42.6016C0.976562 40.8438 2.28906 39.6484 3.97656 39.6484H53.6172C55.3047 39.6484 56.6172 40.8438 56.6172 42.6016C56.6172 44.3359 55.3047 45.5547 53.6172 45.5547H3.97656Z" fill="#343434"/>
</svg>
