<svg width="52" height="52" viewBox="0 0 52 52" fill="none" xmlns="http://www.w3.org/2000/svg">
<path d="M23.7031 51.6953C21.9922 51.6953 20.7031 50.6641 20.3516 49.0234L19.2266 44.3359C18.5938 44.125 18.0078 43.8906 17.4688 43.6328L13.3906 46.1641C12.0078 47.0312 10.3203 46.8672 9.14844 45.7188L6.17188 42.7188C5 41.5469 4.83594 39.8125 5.75 38.4297L8.23438 34.375C7.97656 33.8359 7.74219 33.2734 7.55469 32.7109L2.84375 31.5859C1.22656 31.2344 0.195312 29.9219 0.195312 28.2344V24.0625C0.195312 22.3984 1.22656 21.0859 2.84375 20.7109L7.50781 19.6094C7.71875 18.9766 7.95312 18.3906 8.1875 17.8984L5.70312 13.7734C4.78906 12.3438 4.92969 10.6562 6.125 9.50781L9.17188 6.50781C10.3672 5.40625 11.8438 5.24219 13.2734 6.01562L17.4453 8.57031C17.9844 8.28906 18.5938 8.05469 19.2266 7.84375L20.3516 3.15625C20.7031 1.49219 21.9922 0.460938 23.7031 0.460938H27.9453C29.6328 0.460938 30.9453 1.49219 31.2969 3.13281L32.4219 7.86719C33.0547 8.10156 33.6406 8.33594 34.1562 8.59375L38.3516 6.01562C39.7812 5.24219 41.2812 5.45312 42.4531 6.50781L45.5 9.50781C46.7188 10.6562 46.8359 12.3438 45.9453 13.7734L43.4375 17.8984C43.6719 18.3906 43.9062 18.9766 44.1172 19.6094L48.7812 20.7109C50.4219 21.0859 51.4531 22.3984 51.4531 24.0625V28.2344C51.4531 29.9219 50.4219 31.2344 48.7812 31.5859L44.0703 32.7109C43.8828 33.2734 43.6484 33.8359 43.4141 34.375L45.875 38.4297C46.8125 39.8125 46.6484 41.5469 45.4766 42.7188L42.4766 45.7188C41.3281 46.8672 39.6406 47.0312 38.2344 46.1641L34.1562 43.6328C33.6172 43.8906 33.0312 44.125 32.4219 44.3359L31.2969 49.0234C30.9453 50.6641 29.6328 51.6953 27.9453 51.6953H23.7031ZM25.8125 34.1641C30.2656 34.1641 33.8984 30.5078 33.8984 26.0547C33.8984 21.6484 30.2656 18.0156 25.8125 18.0156C21.3828 18.0156 17.75 21.6484 17.75 26.0547C17.75 30.5078 21.3828 34.1641 25.8125 34.1641Z" fill="#343434"/>
</svg>
