<svg width="30" height="21" viewBox="0 0 30 21" fill="none" xmlns="http://www.w3.org/2000/svg">
<path d="M13.207 20.8867C12.9336 20.8867 12.6758 20.8281 12.4336 20.7109C12.1914 20.5938 11.9375 20.4062 11.6719 20.1484L6.67969 15.4141C6.60156 15.3438 6.50391 15.3086 6.38672 15.3086H3.02344C2.23438 15.3086 1.62891 15.0938 1.20703 14.6641C0.785156 14.2344 0.574219 13.5938 0.574219 12.7422V8.38281C0.574219 7.53906 0.785156 6.90234 1.20703 6.47266C1.62891 6.03516 2.23438 5.81641 3.02344 5.81641H6.38672C6.50391 5.81641 6.60156 5.78125 6.67969 5.71094L11.6719 1.02344C11.9688 0.734375 12.2266 0.527344 12.4453 0.402344C12.6641 0.277344 12.9102 0.214844 13.1836 0.214844C13.582 0.214844 13.9062 0.351563 14.1562 0.625C14.4062 0.890625 14.5312 1.21484 14.5312 1.59766V19.5742C14.5312 19.9492 14.4062 20.2617 14.1562 20.5117C13.9141 20.7617 13.5977 20.8867 13.207 20.8867ZM23.4609 16.4922C22.6484 16.4922 21.8828 16.3398 21.1641 16.0352C20.4453 15.7227 19.8125 15.293 19.2656 14.7461C18.7188 14.1992 18.2891 13.5664 17.9766 12.8477C17.6641 12.1289 17.5078 11.3594 17.5078 10.5391C17.5078 9.71875 17.6641 8.95312 17.9766 8.24219C18.2891 7.52344 18.7188 6.89062 19.2656 6.34375C19.8125 5.78906 20.4453 5.35938 21.1641 5.05469C21.8828 4.74219 22.6484 4.58594 23.4609 4.58594C24.2812 4.58594 25.0508 4.74219 25.7695 5.05469C26.4883 5.35938 27.1211 5.78516 27.668 6.33203C28.2148 6.87891 28.6406 7.51172 28.9453 8.23047C29.2578 8.94922 29.4141 9.71875 29.4141 10.5391C29.4141 11.3516 29.2578 12.1172 28.9453 12.8359C28.6328 13.5547 28.1992 14.1875 27.6445 14.7344C27.0977 15.2812 26.4648 15.7109 25.7461 16.0234C25.0273 16.3359 24.2656 16.4922 23.4609 16.4922ZM23.4609 14.3359C23.7344 14.3359 23.9688 14.2422 24.1641 14.0547C24.3594 13.8594 24.457 13.625 24.457 13.3516C24.457 13.0859 24.3594 12.8555 24.1641 12.6602C23.9766 12.457 23.7422 12.3555 23.4609 12.3555C23.1953 12.3555 22.9648 12.4531 22.7695 12.6484C22.5742 12.8438 22.4766 13.0781 22.4766 13.3516C22.4766 13.625 22.5742 13.8594 22.7695 14.0547C22.9648 14.2422 23.1953 14.3359 23.4609 14.3359ZM23.4727 11.5469C23.6758 11.5469 23.8398 11.4844 23.9648 11.3594C24.0977 11.2266 24.168 11.0625 24.1758 10.8672L24.2695 7.51562C24.2773 7.27344 24.207 7.07812 24.0586 6.92969C23.9102 6.78125 23.7148 6.70703 23.4727 6.70703C23.2227 6.70703 23.0234 6.78125 22.875 6.92969C22.7266 7.07812 22.6562 7.27344 22.6641 7.51562L22.7578 10.8672C22.7656 11.0625 22.832 11.2266 22.957 11.3594C23.0898 11.4844 23.2617 11.5469 23.4727 11.5469Z" fill="#343434"/>
</svg>
