<svg width="796" height="683" viewBox="0 0 796 683" fill="none" xmlns="http://www.w3.org/2000/svg">
<path d="M28.7637 34V30.0449H35.9883C37.5117 30.0449 38.6777 29.7402 39.4863 29.1309C40.2949 28.5098 40.6992 27.6133 40.6992 26.4414V26.4062C40.6992 25.6328 40.5117 24.9824 40.1367 24.4551C39.7617 23.916 39.2051 23.5117 38.4668 23.2422C37.7402 22.9727 36.8379 22.8379 35.7598 22.8379H28.7637V19.2344H35.127C36.627 19.2344 37.7637 18.9355 38.5371 18.3379C39.3223 17.7285 39.7148 16.8789 39.7148 15.7891V15.7539C39.7148 14.7461 39.3691 13.9668 38.6777 13.416C37.9863 12.8535 37.0195 12.5723 35.7773 12.5723H28.7637V8.63477H37.1484C38.7539 8.63477 40.1367 8.89258 41.2969 9.4082C42.457 9.92383 43.3535 10.6621 43.9863 11.623C44.6191 12.5723 44.9355 13.6973 44.9355 14.998V15.0332C44.9355 15.959 44.7188 16.8203 44.2852 17.6172C43.8633 18.4023 43.2832 19.0586 42.5449 19.5859C41.8066 20.1016 40.9688 20.4238 40.0312 20.5527V20.6582C41.2148 20.7402 42.2637 21.0566 43.1777 21.6074C44.0918 22.1465 44.8066 22.8613 45.3223 23.752C45.8496 24.6309 46.1133 25.627 46.1133 26.7402V26.7754C46.1133 28.252 45.7559 29.5293 45.041 30.6074C44.3379 31.6855 43.3301 32.5234 42.0176 33.1211C40.7168 33.707 39.1582 34 37.3418 34H28.7637ZM26.1094 34V8.63477H31.418V34H26.1094ZM57.2754 34.3867C55.3535 34.3867 53.7012 33.9941 52.3184 33.209C50.9355 32.4121 49.8691 31.2812 49.1191 29.8164C48.3809 28.3516 48.0117 26.6172 48.0117 24.6133V24.5957C48.0117 22.5918 48.3809 20.8574 49.1191 19.3926C49.8691 17.916 50.918 16.7793 52.2656 15.9824C53.625 15.1738 55.2246 14.7695 57.0645 14.7695C58.9043 14.7695 60.4922 15.1621 61.8281 15.9473C63.1758 16.7207 64.2129 17.8164 64.9395 19.2344C65.6777 20.6523 66.0469 22.3105 66.0469 24.209V25.791H50.5254V22.5566H63.6211L61.1777 25.5801V23.6113C61.1777 22.5098 61.0078 21.5898 60.668 20.8516C60.3281 20.1016 59.8535 19.5391 59.2441 19.1641C58.6465 18.7891 57.9492 18.6016 57.1523 18.6016C56.3555 18.6016 55.6465 18.7949 55.0254 19.1816C54.416 19.5684 53.9355 20.1367 53.584 20.8867C53.2441 21.625 53.0742 22.5332 53.0742 23.6113V25.5977C53.0742 26.6406 53.2441 27.5312 53.584 28.2695C53.9355 29.0078 54.4336 29.5762 55.0781 29.9746C55.7227 30.3613 56.4902 30.5547 57.3809 30.5547C58.084 30.5547 58.6934 30.4434 59.209 30.2207C59.7246 29.998 60.1465 29.7168 60.4746 29.377C60.8027 29.0371 61.0254 28.6914 61.1426 28.3398L61.1777 28.2344H65.8887L65.8359 28.4277C65.6953 29.1191 65.4199 29.8164 65.0098 30.5195C64.5996 31.2227 64.043 31.8672 63.3398 32.4531C62.6484 33.0391 61.7988 33.5078 60.791 33.8594C59.7949 34.2109 58.623 34.3867 57.2754 34.3867ZM68.8066 34V15.1562H73.9395V34H68.8066ZM71.373 12.7305C70.5996 12.7305 69.9492 12.4668 69.4219 11.9395C68.8945 11.4121 68.6309 10.7852 68.6309 10.0586C68.6309 9.32031 68.8945 8.69336 69.4219 8.17773C69.9492 7.65039 70.5996 7.38672 71.373 7.38672C72.1465 7.38672 72.7969 7.65039 73.3242 8.17773C73.8516 8.69336 74.1152 9.32031 74.1152 10.0586C74.1152 10.7852 73.8516 11.4121 73.3242 11.9395C72.7969 12.4668 72.1465 12.7305 71.373 12.7305ZM77.3848 34V15.1562H82.5176V18.25H82.623C83.1152 17.1719 83.8418 16.3223 84.8027 15.7012C85.7637 15.0801 86.9531 14.7695 88.3711 14.7695C90.4453 14.7695 92.0449 15.3965 93.1699 16.6504C94.3066 17.8926 94.875 19.6211 94.875 21.8359V34H89.7422V22.8906C89.7422 21.6602 89.4492 20.7109 88.8633 20.043C88.2891 19.3633 87.4277 19.0234 86.2793 19.0234C85.5176 19.0234 84.8555 19.1992 84.293 19.5508C83.7305 19.8906 83.291 20.3711 82.9746 20.9922C82.6699 21.6133 82.5176 22.3398 82.5176 23.1719V34H77.3848ZM105.879 34.3867C104.145 34.3867 102.668 34.1348 101.449 33.6309C100.23 33.127 99.2754 32.4297 98.584 31.5391C97.9043 30.6367 97.4941 29.5938 97.3535 28.4102L97.3359 28.252H102.346L102.381 28.4102C102.545 29.1484 102.914 29.7227 103.488 30.1328C104.062 30.543 104.859 30.748 105.879 30.748C106.535 30.748 107.092 30.6719 107.549 30.5195C108.006 30.3555 108.357 30.127 108.604 29.834C108.861 29.541 108.99 29.1895 108.99 28.7793V28.7617C108.99 28.2578 108.809 27.8535 108.445 27.5488C108.082 27.2441 107.438 26.9863 106.512 26.7754L103.312 26.1074C102.094 25.8496 101.074 25.4805 100.254 25C99.4453 24.5078 98.8359 23.9043 98.4258 23.1895C98.0156 22.4629 97.8105 21.6309 97.8105 20.6934V20.6758C97.8105 19.4688 98.1328 18.4258 98.7773 17.5469C99.4219 16.668 100.336 15.9883 101.52 15.5078C102.715 15.0156 104.109 14.7695 105.703 14.7695C107.367 14.7695 108.779 15.0391 109.939 15.5781C111.111 16.1055 112.008 16.8203 112.629 17.7227C113.262 18.625 113.596 19.627 113.631 20.7285V20.9043H108.902L108.885 20.7637C108.803 20.084 108.486 19.5215 107.936 19.0762C107.396 18.6191 106.652 18.3906 105.703 18.3906C105.117 18.3906 104.607 18.4727 104.174 18.6367C103.74 18.8008 103.406 19.0352 103.172 19.3398C102.938 19.6328 102.82 19.9844 102.82 20.3945V20.4121C102.82 20.7285 102.896 21.0156 103.049 21.2734C103.213 21.5195 103.482 21.7363 103.857 21.9238C104.232 22.1113 104.736 22.2754 105.369 22.416L108.568 23.1016C110.549 23.5117 111.967 24.127 112.822 24.9473C113.689 25.7676 114.123 26.8691 114.123 28.252V28.2695C114.123 29.5 113.771 30.5723 113.068 31.4863C112.365 32.4004 111.393 33.1152 110.15 33.6309C108.92 34.1348 107.496 34.3867 105.879 34.3867ZM124.143 34.3867C122.057 34.3867 120.51 33.9473 119.502 33.0684C118.494 32.1895 117.99 30.7422 117.99 28.7266V19.0234H115.371V15.1562H117.99V10.5508H123.176V15.1562H126.621V19.0234H123.176V28.1641C123.176 29.043 123.369 29.6582 123.756 30.0098C124.154 30.3496 124.74 30.5195 125.514 30.5195C125.748 30.5195 125.953 30.5137 126.129 30.502C126.305 30.4785 126.469 30.4551 126.621 30.4316V34.1934C126.34 34.2402 125.988 34.2812 125.566 34.3164C125.156 34.3633 124.682 34.3867 124.143 34.3867ZM129.451 34V15.1562H134.584V18.4434H134.689C134.971 17.2832 135.48 16.3809 136.219 15.7363C136.957 15.0918 137.877 14.7695 138.979 14.7695C139.26 14.7695 139.529 14.7871 139.787 14.8223C140.045 14.8574 140.268 14.9043 140.455 14.9629V19.4805C140.244 19.3984 139.975 19.334 139.646 19.2871C139.318 19.2285 138.967 19.1992 138.592 19.1992C137.748 19.1992 137.027 19.3633 136.43 19.6914C135.832 20.0195 135.375 20.5 135.059 21.1328C134.742 21.7656 134.584 22.5391 134.584 23.4531V34H129.451ZM150.545 34.3867C148.623 34.3867 146.971 33.9941 145.588 33.209C144.205 32.4121 143.139 31.2812 142.389 29.8164C141.65 28.3516 141.281 26.6172 141.281 24.6133V24.5957C141.281 22.5918 141.65 20.8574 142.389 19.3926C143.139 17.916 144.188 16.7793 145.535 15.9824C146.895 15.1738 148.494 14.7695 150.334 14.7695C152.174 14.7695 153.762 15.1621 155.098 15.9473C156.445 16.7207 157.482 17.8164 158.209 19.2344C158.947 20.6523 159.316 22.3105 159.316 24.209V25.791H143.795V22.5566H156.891L154.447 25.5801V23.6113C154.447 22.5098 154.277 21.5898 153.938 20.8516C153.598 20.1016 153.123 19.5391 152.514 19.1641C151.916 18.7891 151.219 18.6016 150.422 18.6016C149.625 18.6016 148.916 18.7949 148.295 19.1816C147.686 19.5684 147.205 20.1367 146.854 20.8867C146.514 21.625 146.344 22.5332 146.344 23.6113V25.5977C146.344 26.6406 146.514 27.5312 146.854 28.2695C147.205 29.0078 147.703 29.5762 148.348 29.9746C148.992 30.3613 149.76 30.5547 150.65 30.5547C151.354 30.5547 151.963 30.4434 152.479 30.2207C152.994 29.998 153.416 29.7168 153.744 29.377C154.072 29.0371 154.295 28.6914 154.412 28.3398L154.447 28.2344H159.158L159.105 28.4277C158.965 29.1191 158.689 29.8164 158.279 30.5195C157.869 31.2227 157.312 31.8672 156.609 32.4531C155.918 33.0391 155.068 33.5078 154.061 33.8594C153.064 34.2109 151.893 34.3867 150.545 34.3867ZM170.584 34.3867C168.674 34.3867 167.021 33.9883 165.627 33.1914C164.232 32.3945 163.16 31.2637 162.41 29.7988C161.66 28.3223 161.285 26.5762 161.285 24.5605V24.543C161.285 22.5273 161.66 20.793 162.41 19.3398C163.172 17.875 164.244 16.75 165.627 15.9648C167.021 15.168 168.656 14.7695 170.531 14.7695C172.242 14.7695 173.725 15.0918 174.979 15.7363C176.232 16.3691 177.211 17.2305 177.914 18.3203C178.629 19.4102 179.021 20.6348 179.092 21.9941V22.1172H174.328L174.293 21.959C174.141 21.0566 173.754 20.3066 173.133 19.709C172.512 19.0996 171.668 18.7949 170.602 18.7949C169.77 18.7949 169.043 19.0293 168.422 19.498C167.812 19.9551 167.338 20.6172 166.998 21.4844C166.67 22.3398 166.506 23.3652 166.506 24.5605V24.5781C166.506 25.8086 166.67 26.8574 166.998 27.7246C167.338 28.5801 167.812 29.2363 168.422 29.6934C169.043 30.1387 169.775 30.3613 170.619 30.3613C171.65 30.3613 172.477 30.0742 173.098 29.5C173.73 28.9141 174.135 28.1465 174.311 27.1973L174.328 27.0391H179.109V27.1445C179.027 28.5156 178.629 29.7461 177.914 30.8359C177.199 31.9258 176.215 32.793 174.961 33.4375C173.719 34.0703 172.26 34.3867 170.584 34.3867ZM181.764 34V8.63477H186.896V34H181.764ZM193.611 34L187.793 25.668L191.045 21.7656L199.535 34H193.611ZM186.264 28.4453V22.6973H187.002L193.365 15.1562H199.184L190.482 25.0527H189.34L186.264 28.4453ZM208.658 34.3867C206.736 34.3867 205.084 33.9941 203.701 33.209C202.318 32.4121 201.252 31.2812 200.502 29.8164C199.764 28.3516 199.395 26.6172 199.395 24.6133V24.5957C199.395 22.5918 199.764 20.8574 200.502 19.3926C201.252 17.916 202.301 16.7793 203.648 15.9824C205.008 15.1738 206.607 14.7695 208.447 14.7695C210.287 14.7695 211.875 15.1621 213.211 15.9473C214.559 16.7207 215.596 17.8164 216.322 19.2344C217.061 20.6523 217.43 22.3105 217.43 24.209V25.791H201.908V22.5566H215.004L212.561 25.5801V23.6113C212.561 22.5098 212.391 21.5898 212.051 20.8516C211.711 20.1016 211.236 19.5391 210.627 19.1641C210.029 18.7891 209.332 18.6016 208.535 18.6016C207.738 18.6016 207.029 18.7949 206.408 19.1816C205.799 19.5684 205.318 20.1367 204.967 20.8867C204.627 21.625 204.457 22.5332 204.457 23.6113V25.5977C204.457 26.6406 204.627 27.5312 204.967 28.2695C205.318 29.0078 205.816 29.5762 206.461 29.9746C207.105 30.3613 207.873 30.5547 208.764 30.5547C209.467 30.5547 210.076 30.4434 210.592 30.2207C211.107 29.998 211.529 29.7168 211.857 29.377C212.186 29.0371 212.408 28.6914 212.525 28.3398L212.561 28.2344H217.271L217.219 28.4277C217.078 29.1191 216.803 29.8164 216.393 30.5195C215.982 31.2227 215.426 31.8672 214.723 32.4531C214.031 33.0391 213.182 33.5078 212.174 33.8594C211.178 34.2109 210.006 34.3867 208.658 34.3867ZM220.084 34V15.1562H225.217V18.4434H225.322C225.604 17.2832 226.113 16.3809 226.852 15.7363C227.59 15.0918 228.51 14.7695 229.611 14.7695C229.893 14.7695 230.162 14.7871 230.42 14.8223C230.678 14.8574 230.9 14.9043 231.088 14.9629V19.4805C230.877 19.3984 230.607 19.334 230.279 19.2871C229.951 19.2285 229.6 19.1992 229.225 19.1992C228.381 19.1992 227.66 19.3633 227.062 19.6914C226.465 20.0195 226.008 20.5 225.691 21.1328C225.375 21.7656 225.217 22.5391 225.217 23.4531V34H220.084Z" fill="#343434"/>
<g filter="url(#filter0_d_178_568)">
<rect x="24" y="71" width="748" height="560" rx="20" fill="white"/>
</g>
<path d="M63.5781 133V113.438H63.5156L57.5469 117.594V114.766L63.5469 110.453H66.2969V133H63.5781ZM79.7812 133.375C78.1875 133.375 76.776 133.099 75.5469 132.547C74.3177 131.995 73.349 131.234 72.6406 130.266C71.9427 129.286 71.5938 128.167 71.5938 126.906V126.875C71.5938 125.948 71.7969 125.089 72.2031 124.297C72.6094 123.505 73.1771 122.833 73.9062 122.281C74.6354 121.719 75.4792 121.328 76.4375 121.109V121.047C75.2083 120.661 74.2292 120.026 73.5 119.141C72.7708 118.255 72.4062 117.219 72.4062 116.031V116C72.4062 114.865 72.724 113.854 73.3594 112.969C73.9948 112.073 74.8698 111.37 75.9844 110.859C77.099 110.339 78.3646 110.078 79.7812 110.078C81.2083 110.078 82.474 110.339 83.5781 110.859C84.6927 111.37 85.5677 112.073 86.2031 112.969C86.8385 113.854 87.1562 114.865 87.1562 116V116.031C87.1562 117.219 86.7917 118.255 86.0625 119.141C85.3438 120.026 84.3646 120.661 83.125 121.047V121.109C84.0938 121.328 84.9375 121.719 85.6562 122.281C86.3854 122.833 86.9531 123.505 87.3594 124.297C87.7656 125.089 87.9688 125.948 87.9688 126.875V126.906C87.9688 128.167 87.6198 129.286 86.9219 130.266C86.224 131.234 85.2552 131.995 84.0156 132.547C82.7865 133.099 81.375 133.375 79.7812 133.375ZM79.7812 130.922C80.8229 130.922 81.7396 130.745 82.5312 130.391C83.3333 130.026 83.9635 129.531 84.4219 128.906C84.8802 128.271 85.1094 127.547 85.1094 126.734V126.703C85.1094 125.88 84.8802 125.151 84.4219 124.516C83.974 123.88 83.349 123.38 82.5469 123.016C81.7448 122.651 80.8229 122.469 79.7812 122.469C78.7396 122.469 77.8177 122.651 77.0156 123.016C76.2135 123.38 75.5833 123.88 75.125 124.516C74.6771 125.151 74.4531 125.88 74.4531 126.703V126.734C74.4531 127.547 74.6823 128.271 75.1406 128.906C75.599 129.531 76.2292 130.026 77.0312 130.391C77.8333 130.745 78.75 130.922 79.7812 130.922ZM79.7812 120C80.6875 120 81.4844 119.844 82.1719 119.531C82.8594 119.208 83.3958 118.766 83.7812 118.203C84.1667 117.641 84.3594 116.995 84.3594 116.266V116.234C84.3594 115.505 84.1667 114.859 83.7812 114.297C83.3958 113.734 82.8594 113.297 82.1719 112.984C81.4844 112.661 80.6875 112.5 79.7812 112.5C78.875 112.5 78.0781 112.661 77.3906 112.984C76.7031 113.297 76.1667 113.734 75.7812 114.297C75.3958 114.859 75.2031 115.505 75.2031 116.234V116.266C75.2031 116.995 75.3958 117.641 75.7812 118.203C76.1667 118.766 76.7031 119.208 77.3906 119.531C78.0781 119.844 78.875 120 79.7812 120ZM99.0625 133.375C97.3333 133.375 95.849 132.901 94.6094 131.953C93.3802 131.005 92.4375 129.661 91.7812 127.922C91.125 126.182 90.7969 124.12 90.7969 121.734V121.703C90.7969 119.318 91.125 117.255 91.7812 115.516C92.4375 113.776 93.3802 112.438 94.6094 111.5C95.849 110.552 97.3333 110.078 99.0625 110.078C100.792 110.078 102.276 110.552 103.516 111.5C104.755 112.438 105.703 113.776 106.359 115.516C107.026 117.255 107.359 119.318 107.359 121.703V121.734C107.359 124.12 107.026 126.182 106.359 127.922C105.703 129.661 104.755 131.005 103.516 131.953C102.276 132.901 100.792 133.375 99.0625 133.375ZM99.0625 130.922C100.208 130.922 101.188 130.552 102 129.812C102.823 129.062 103.448 128 103.875 126.625C104.312 125.25 104.531 123.62 104.531 121.734V121.703C104.531 119.818 104.312 118.193 103.875 116.828C103.448 115.453 102.823 114.396 102 113.656C101.188 112.917 100.208 112.547 99.0625 112.547C97.9167 112.547 96.9375 112.917 96.125 113.656C95.3125 114.396 94.6927 115.453 94.2656 116.828C93.8385 118.193 93.625 119.818 93.625 121.703V121.734C93.625 123.62 93.8385 125.25 94.2656 126.625C94.6927 128 95.3125 129.062 96.125 129.812C96.9375 130.552 97.9167 130.922 99.0625 130.922Z" fill="#999999"/>
<path d="M82.6875 511.375C80.9583 511.375 79.474 510.901 78.2344 509.953C77.0052 509.005 76.0625 507.661 75.4062 505.922C74.75 504.182 74.4219 502.12 74.4219 499.734V499.703C74.4219 497.318 74.75 495.255 75.4062 493.516C76.0625 491.776 77.0052 490.438 78.2344 489.5C79.474 488.552 80.9583 488.078 82.6875 488.078C84.4167 488.078 85.901 488.552 87.1406 489.5C88.3802 490.438 89.3281 491.776 89.9844 493.516C90.651 495.255 90.9844 497.318 90.9844 499.703V499.734C90.9844 502.12 90.651 504.182 89.9844 505.922C89.3281 507.661 88.3802 509.005 87.1406 509.953C85.901 510.901 84.4167 511.375 82.6875 511.375ZM82.6875 508.922C83.8333 508.922 84.8125 508.552 85.625 507.812C86.4479 507.062 87.0729 506 87.5 504.625C87.9375 503.25 88.1562 501.62 88.1562 499.734V499.703C88.1562 497.818 87.9375 496.193 87.5 494.828C87.0729 493.453 86.4479 492.396 85.625 491.656C84.8125 490.917 83.8333 490.547 82.6875 490.547C81.5417 490.547 80.5625 490.917 79.75 491.656C78.9375 492.396 78.3177 493.453 77.8906 494.828C77.4635 496.193 77.25 497.818 77.25 499.703V499.734C77.25 501.62 77.4635 503.25 77.8906 504.625C78.3177 506 78.9375 507.062 79.75 507.812C80.5625 508.552 81.5417 508.922 82.6875 508.922Z" fill="#999999"/>
<path d="M149.578 591V571.438H149.516L143.547 575.594V572.766L149.547 568.453H152.297V591H149.578Z" fill="#343434"/>
<path d="M253.422 591.375C251.87 591.375 250.516 591.109 249.359 590.578C248.203 590.047 247.286 589.318 246.609 588.391C245.943 587.464 245.557 586.406 245.453 585.219L245.438 585.031H248.141L248.156 585.188C248.24 585.927 248.505 586.578 248.953 587.141C249.411 587.703 250.021 588.146 250.781 588.469C251.542 588.781 252.422 588.938 253.422 588.938C254.411 588.938 255.276 588.766 256.016 588.422C256.766 588.078 257.349 587.604 257.766 587C258.182 586.385 258.391 585.682 258.391 584.891V584.859C258.391 583.474 257.927 582.411 257 581.672C256.083 580.922 254.833 580.547 253.25 580.547H250.422V578.172H253.125C254.021 578.172 254.812 578.005 255.5 577.672C256.188 577.328 256.724 576.865 257.109 576.281C257.495 575.688 257.688 575.016 257.688 574.266V574.234C257.688 573.443 257.521 572.771 257.188 572.219C256.854 571.667 256.365 571.245 255.719 570.953C255.083 570.661 254.307 570.516 253.391 570.516C252.505 570.516 251.714 570.667 251.016 570.969C250.328 571.26 249.776 571.682 249.359 572.234C248.943 572.786 248.693 573.443 248.609 574.203L248.594 574.359H245.891L245.906 574.203C246.031 572.974 246.417 571.901 247.062 570.984C247.719 570.068 248.583 569.354 249.656 568.844C250.74 568.333 251.984 568.078 253.391 568.078C254.828 568.078 256.078 568.328 257.141 568.828C258.214 569.318 259.042 570 259.625 570.875C260.219 571.74 260.516 572.745 260.516 573.891V573.922C260.516 574.849 260.312 575.672 259.906 576.391C259.5 577.109 258.938 577.708 258.219 578.188C257.5 578.667 256.672 579.005 255.734 579.203V579.266C257.38 579.401 258.708 579.958 259.719 580.938C260.74 581.906 261.25 583.193 261.25 584.797V584.828C261.25 586.078 260.911 587.198 260.234 588.188C259.557 589.177 258.63 589.958 257.453 590.531C256.276 591.094 254.932 591.375 253.422 591.375Z" fill="#343434"/>
<path d="M193.828 591V589.062L201.766 580.781C202.786 579.719 203.562 578.844 204.094 578.156C204.635 577.458 205.005 576.833 205.203 576.281C205.411 575.729 205.516 575.141 205.516 574.516V574.484C205.516 573.714 205.333 573.031 204.969 572.438C204.615 571.844 204.12 571.38 203.484 571.047C202.859 570.703 202.135 570.531 201.312 570.531C200.375 570.531 199.536 570.729 198.797 571.125C198.057 571.51 197.474 572.031 197.047 572.688C196.62 573.344 196.406 574.078 196.406 574.891V574.969H193.688V574.875C193.688 573.573 194.026 572.411 194.703 571.391C195.38 570.359 196.292 569.552 197.438 568.969C198.594 568.375 199.87 568.078 201.266 568.078C202.63 568.078 203.844 568.354 204.906 568.906C205.969 569.458 206.802 570.208 207.406 571.156C208.021 572.104 208.328 573.167 208.328 574.344V574.375C208.328 575.198 208.172 575.995 207.859 576.766C207.557 577.536 207.026 578.406 206.266 579.375C205.505 580.333 204.432 581.521 203.047 582.938L196.859 589.281L197.688 587.547V589.281L196.859 588.5H208.703V591H193.828Z" fill="#343434"/>
<path d="M307.547 591V586.312H296.219V583.766C296.875 582.745 297.531 581.724 298.188 580.703C298.854 579.682 299.516 578.661 300.172 577.641C300.839 576.62 301.5 575.599 302.156 574.578C302.812 573.557 303.469 572.536 304.125 571.516C304.792 570.495 305.453 569.474 306.109 568.453H310.266V583.844H313.453V586.312H310.266V591H307.547ZM299 583.844H307.547V570.859H307.453C306.891 571.724 306.328 572.589 305.766 573.453C305.203 574.307 304.641 575.167 304.078 576.031C303.516 576.885 302.948 577.745 302.375 578.609C301.812 579.474 301.25 580.339 300.688 581.203C300.125 582.057 299.562 582.917 299 583.781V583.844Z" fill="#343434"/>
<path d="M357.578 591.375C356.141 591.375 354.859 591.099 353.734 590.547C352.62 589.995 351.724 589.24 351.047 588.281C350.37 587.323 349.974 586.234 349.859 585.016L349.844 584.844H352.609L352.625 584.969C352.719 585.708 352.99 586.38 353.438 586.984C353.885 587.578 354.469 588.047 355.188 588.391C355.906 588.734 356.714 588.906 357.609 588.906C358.63 588.906 359.531 588.688 360.312 588.25C361.094 587.812 361.703 587.208 362.141 586.438C362.578 585.656 362.797 584.76 362.797 583.75V583.719C362.797 582.729 362.573 581.854 362.125 581.094C361.688 580.323 361.083 579.719 360.312 579.281C359.542 578.844 358.656 578.625 357.656 578.625C356.896 578.625 356.188 578.74 355.531 578.969C354.885 579.188 354.312 579.526 353.812 579.984C353.615 580.172 353.422 580.375 353.234 580.594C353.057 580.812 352.896 581.052 352.75 581.312H350.266L351.422 568.453H364.328V570.953H353.734L352.969 578.531H353.031C353.385 578.021 353.823 577.594 354.344 577.25C354.865 576.906 355.448 576.646 356.094 576.469C356.74 576.292 357.427 576.203 358.156 576.203C359.604 576.203 360.885 576.526 362 577.172C363.125 577.818 364.005 578.703 364.641 579.828C365.286 580.943 365.609 582.224 365.609 583.672V583.703C365.609 585.203 365.266 586.531 364.578 587.688C363.891 588.844 362.943 589.75 361.734 590.406C360.526 591.052 359.141 591.375 357.578 591.375Z" fill="#343434"/>
<path d="M408.984 591.375C407.943 591.375 406.917 591.182 405.906 590.797C404.896 590.401 403.974 589.766 403.141 588.891C402.318 588.016 401.656 586.865 401.156 585.438C400.667 584 400.422 582.234 400.422 580.141V580.109C400.422 577.578 400.766 575.417 401.453 573.625C402.151 571.823 403.151 570.448 404.453 569.5C405.766 568.552 407.339 568.078 409.172 568.078C410.453 568.078 411.604 568.307 412.625 568.766C413.656 569.214 414.516 569.849 415.203 570.672C415.891 571.495 416.359 572.453 416.609 573.547L416.656 573.75H413.797L413.734 573.578C413.516 572.953 413.193 572.417 412.766 571.969C412.339 571.521 411.818 571.177 411.203 570.938C410.599 570.688 409.911 570.562 409.141 570.562C407.745 570.562 406.615 570.969 405.75 571.781C404.885 572.594 404.245 573.667 403.828 575C403.422 576.333 403.198 577.792 403.156 579.375C403.146 579.479 403.141 579.583 403.141 579.688C403.141 579.781 403.141 579.88 403.141 579.984L403.812 583.688C403.812 584.646 404.036 585.521 404.484 586.312C404.943 587.094 405.562 587.719 406.344 588.188C407.125 588.646 407.995 588.875 408.953 588.875C409.911 588.875 410.781 588.651 411.562 588.203C412.344 587.745 412.964 587.13 413.422 586.359C413.88 585.589 414.109 584.729 414.109 583.781V583.75C414.109 582.771 413.891 581.901 413.453 581.141C413.016 580.38 412.411 579.786 411.641 579.359C410.87 578.922 409.99 578.703 409 578.703C408.021 578.703 407.135 578.917 406.344 579.344C405.562 579.771 404.943 580.359 404.484 581.109C404.036 581.859 403.812 582.714 403.812 583.672V583.688H402.875V579.859H403.203C403.505 579.193 403.953 578.589 404.547 578.047C405.151 577.495 405.87 577.057 406.703 576.734C407.536 576.401 408.464 576.234 409.484 576.234C410.922 576.234 412.203 576.557 413.328 577.203C414.453 577.849 415.339 578.734 415.984 579.859C416.641 580.984 416.969 582.26 416.969 583.688V583.719C416.969 585.198 416.62 586.516 415.922 587.672C415.234 588.818 414.292 589.724 413.094 590.391C411.896 591.047 410.526 591.375 408.984 591.375Z" fill="#343434"/>
<path d="M455.125 591L465.328 571.016V570.953H453.188V568.453H468.109V571.062L458.078 591H455.125Z" fill="#343434"/>
<path d="M512.594 591.375C511 591.375 509.589 591.099 508.359 590.547C507.13 589.995 506.161 589.234 505.453 588.266C504.755 587.286 504.406 586.167 504.406 584.906V584.875C504.406 583.948 504.609 583.089 505.016 582.297C505.422 581.505 505.99 580.833 506.719 580.281C507.448 579.719 508.292 579.328 509.25 579.109V579.047C508.021 578.661 507.042 578.026 506.312 577.141C505.583 576.255 505.219 575.219 505.219 574.031V574C505.219 572.865 505.536 571.854 506.172 570.969C506.807 570.073 507.682 569.37 508.797 568.859C509.911 568.339 511.177 568.078 512.594 568.078C514.021 568.078 515.286 568.339 516.391 568.859C517.505 569.37 518.38 570.073 519.016 570.969C519.651 571.854 519.969 572.865 519.969 574V574.031C519.969 575.219 519.604 576.255 518.875 577.141C518.156 578.026 517.177 578.661 515.938 579.047V579.109C516.906 579.328 517.75 579.719 518.469 580.281C519.198 580.833 519.766 581.505 520.172 582.297C520.578 583.089 520.781 583.948 520.781 584.875V584.906C520.781 586.167 520.432 587.286 519.734 588.266C519.036 589.234 518.068 589.995 516.828 590.547C515.599 591.099 514.188 591.375 512.594 591.375ZM512.594 588.922C513.635 588.922 514.552 588.745 515.344 588.391C516.146 588.026 516.776 587.531 517.234 586.906C517.693 586.271 517.922 585.547 517.922 584.734V584.703C517.922 583.88 517.693 583.151 517.234 582.516C516.786 581.88 516.161 581.38 515.359 581.016C514.557 580.651 513.635 580.469 512.594 580.469C511.552 580.469 510.63 580.651 509.828 581.016C509.026 581.38 508.396 581.88 507.938 582.516C507.49 583.151 507.266 583.88 507.266 584.703V584.734C507.266 585.547 507.495 586.271 507.953 586.906C508.411 587.531 509.042 588.026 509.844 588.391C510.646 588.745 511.562 588.922 512.594 588.922ZM512.594 578C513.5 578 514.297 577.844 514.984 577.531C515.672 577.208 516.208 576.766 516.594 576.203C516.979 575.641 517.172 574.995 517.172 574.266V574.234C517.172 573.505 516.979 572.859 516.594 572.297C516.208 571.734 515.672 571.297 514.984 570.984C514.297 570.661 513.5 570.5 512.594 570.5C511.688 570.5 510.891 570.661 510.203 570.984C509.516 571.297 508.979 571.734 508.594 572.297C508.208 572.859 508.016 573.505 508.016 574.234V574.266C508.016 574.995 508.208 575.641 508.594 576.203C508.979 576.766 509.516 577.208 510.203 577.531C510.891 577.844 511.688 578 512.594 578Z" fill="#343434"/>
<path d="M564.766 568.078C565.807 568.078 566.833 568.276 567.844 568.672C568.854 569.057 569.771 569.688 570.594 570.562C571.427 571.438 572.089 572.594 572.578 574.031C573.078 575.458 573.328 577.219 573.328 579.312V579.344C573.328 581.875 572.979 584.042 572.281 585.844C571.594 587.635 570.599 589.005 569.297 589.953C567.995 590.901 566.422 591.375 564.578 591.375C563.307 591.375 562.156 591.146 561.125 590.688C560.094 590.229 559.234 589.594 558.547 588.781C557.859 587.958 557.391 587 557.141 585.906L557.094 585.703H559.953L560.016 585.875C560.245 586.49 560.568 587.026 560.984 587.484C561.411 587.932 561.927 588.281 562.531 588.531C563.146 588.771 563.839 588.891 564.609 588.891C566.016 588.891 567.146 588.484 568 587.672C568.865 586.859 569.5 585.786 569.906 584.453C570.323 583.109 570.552 581.651 570.594 580.078C570.604 579.974 570.609 579.875 570.609 579.781C570.609 579.677 570.609 579.573 570.609 579.469L569.938 575.766C569.938 574.797 569.708 573.922 569.25 573.141C568.802 572.359 568.188 571.74 567.406 571.281C566.635 570.812 565.766 570.578 564.797 570.578C563.839 570.578 562.969 570.807 562.188 571.266C561.406 571.714 560.786 572.323 560.328 573.094C559.87 573.865 559.641 574.724 559.641 575.672V575.703C559.641 576.682 559.859 577.552 560.297 578.312C560.734 579.073 561.339 579.672 562.109 580.109C562.88 580.536 563.76 580.75 564.75 580.75C565.74 580.75 566.625 580.536 567.406 580.109C568.188 579.682 568.802 579.094 569.25 578.344C569.708 577.594 569.938 576.74 569.938 575.781V575.766H570.875V579.594H570.547C570.245 580.26 569.797 580.87 569.203 581.422C568.609 581.964 567.891 582.401 567.047 582.734C566.214 583.057 565.286 583.219 564.266 583.219C562.839 583.219 561.557 582.896 560.422 582.25C559.297 581.604 558.406 580.719 557.75 579.594C557.104 578.469 556.781 577.193 556.781 575.766V575.734C556.781 574.255 557.125 572.943 557.812 571.797C558.51 570.641 559.458 569.734 560.656 569.078C561.854 568.411 563.224 568.078 564.766 568.078Z" fill="#343434"/>
<path d="M607.578 591V571.438H607.516L601.547 575.594V572.766L607.547 568.453H610.297V591H607.578ZM623.875 591.375C622.146 591.375 620.661 590.901 619.422 589.953C618.193 589.005 617.25 587.661 616.594 585.922C615.938 584.182 615.609 582.12 615.609 579.734V579.703C615.609 577.318 615.938 575.255 616.594 573.516C617.25 571.776 618.193 570.438 619.422 569.5C620.661 568.552 622.146 568.078 623.875 568.078C625.604 568.078 627.089 568.552 628.328 569.5C629.568 570.438 630.516 571.776 631.172 573.516C631.839 575.255 632.172 577.318 632.172 579.703V579.734C632.172 582.12 631.839 584.182 631.172 585.922C630.516 587.661 629.568 589.005 628.328 589.953C627.089 590.901 625.604 591.375 623.875 591.375ZM623.875 588.922C625.021 588.922 626 588.552 626.812 587.812C627.635 587.062 628.26 586 628.688 584.625C629.125 583.25 629.344 581.62 629.344 579.734V579.703C629.344 577.818 629.125 576.193 628.688 574.828C628.26 573.453 627.635 572.396 626.812 571.656C626 570.917 625.021 570.547 623.875 570.547C622.729 570.547 621.75 570.917 620.938 571.656C620.125 572.396 619.505 573.453 619.078 574.828C618.651 576.193 618.438 577.818 618.438 579.703V579.734C618.438 581.62 618.651 583.25 619.078 584.625C619.505 586 620.125 587.062 620.938 587.812C621.75 588.552 622.729 588.922 623.875 588.922Z" fill="#343434"/>
<path d="M662.578 591V571.438H662.516L656.547 575.594V572.766L662.547 568.453H665.297V591H662.578ZM676.766 591V571.438H676.703L670.734 575.594V572.766L676.734 568.453H679.484V591H676.766Z" fill="#343434"/>
<path d="M712.578 591V571.438H712.516L706.547 575.594V572.766L712.547 568.453H715.297V591H712.578ZM721.016 591V589.062L728.953 580.781C729.974 579.719 730.75 578.844 731.281 578.156C731.823 577.458 732.193 576.833 732.391 576.281C732.599 575.729 732.703 575.141 732.703 574.516V574.484C732.703 573.714 732.521 573.031 732.156 572.438C731.802 571.844 731.307 571.38 730.672 571.047C730.047 570.703 729.323 570.531 728.5 570.531C727.562 570.531 726.724 570.729 725.984 571.125C725.245 571.51 724.661 572.031 724.234 572.688C723.807 573.344 723.594 574.078 723.594 574.891V574.969H720.875V574.875C720.875 573.573 721.214 572.411 721.891 571.391C722.568 570.359 723.479 569.552 724.625 568.969C725.781 568.375 727.057 568.078 728.453 568.078C729.818 568.078 731.031 568.354 732.094 568.906C733.156 569.458 733.99 570.208 734.594 571.156C735.208 572.104 735.516 573.167 735.516 574.344V574.375C735.516 575.198 735.359 575.995 735.047 576.766C734.745 577.536 734.214 578.406 733.453 579.375C732.693 580.333 731.62 581.521 730.234 582.938L724.047 589.281L724.875 587.547V589.281L724.047 588.5H735.891V591H721.016Z" fill="#343434"/>
<rect x="143" y="282" width="12" height="237" rx="6" fill="#00E6BD"/>
<rect x="195" y="275" width="12" height="244" rx="6" fill="#00E6BD"/>
<rect x="247" y="259" width="12" height="263" rx="6" fill="#00E6BD"/>
<rect x="299" y="235" width="12" height="287" rx="6" fill="#00E6BD"/>
<rect x="351" y="205" width="12" height="317" rx="6" fill="#00E6BD"/>
<rect x="403" y="167" width="12" height="355" rx="6" fill="#00E6BD"/>
<rect x="455" y="133" width="12" height="389" rx="6" fill="#00E6BD"/>
<rect x="507" y="103" width="12" height="419" rx="6" fill="#00E6BD"/>
<rect x="559" y="103" width="12" height="419" rx="6" fill="#00E6BD"/>
<rect x="611" y="103" width="12" height="419" rx="6" fill="#00E6BD"/>
<rect x="663" y="119" width="12" height="403" rx="6" fill="#00E6BD"/>
<rect x="715" y="133" width="12" height="392" rx="6" fill="#00E6BD"/>
<g filter="url(#filter1_d_178_568)">
<rect x="24" y="71" width="748" height="560" rx="20" fill="white"/>
</g>
<path d="M63.5781 133V113.438H63.5156L57.5469 117.594V114.766L63.5469 110.453H66.2969V133H63.5781ZM79.7812 133.375C78.1875 133.375 76.776 133.099 75.5469 132.547C74.3177 131.995 73.349 131.234 72.6406 130.266C71.9427 129.286 71.5938 128.167 71.5938 126.906V126.875C71.5938 125.948 71.7969 125.089 72.2031 124.297C72.6094 123.505 73.1771 122.833 73.9062 122.281C74.6354 121.719 75.4792 121.328 76.4375 121.109V121.047C75.2083 120.661 74.2292 120.026 73.5 119.141C72.7708 118.255 72.4062 117.219 72.4062 116.031V116C72.4062 114.865 72.724 113.854 73.3594 112.969C73.9948 112.073 74.8698 111.37 75.9844 110.859C77.099 110.339 78.3646 110.078 79.7812 110.078C81.2083 110.078 82.474 110.339 83.5781 110.859C84.6927 111.37 85.5677 112.073 86.2031 112.969C86.8385 113.854 87.1562 114.865 87.1562 116V116.031C87.1562 117.219 86.7917 118.255 86.0625 119.141C85.3438 120.026 84.3646 120.661 83.125 121.047V121.109C84.0938 121.328 84.9375 121.719 85.6562 122.281C86.3854 122.833 86.9531 123.505 87.3594 124.297C87.7656 125.089 87.9688 125.948 87.9688 126.875V126.906C87.9688 128.167 87.6198 129.286 86.9219 130.266C86.224 131.234 85.2552 131.995 84.0156 132.547C82.7865 133.099 81.375 133.375 79.7812 133.375ZM79.7812 130.922C80.8229 130.922 81.7396 130.745 82.5312 130.391C83.3333 130.026 83.9635 129.531 84.4219 128.906C84.8802 128.271 85.1094 127.547 85.1094 126.734V126.703C85.1094 125.88 84.8802 125.151 84.4219 124.516C83.974 123.88 83.349 123.38 82.5469 123.016C81.7448 122.651 80.8229 122.469 79.7812 122.469C78.7396 122.469 77.8177 122.651 77.0156 123.016C76.2135 123.38 75.5833 123.88 75.125 124.516C74.6771 125.151 74.4531 125.88 74.4531 126.703V126.734C74.4531 127.547 74.6823 128.271 75.1406 128.906C75.599 129.531 76.2292 130.026 77.0312 130.391C77.8333 130.745 78.75 130.922 79.7812 130.922ZM79.7812 120C80.6875 120 81.4844 119.844 82.1719 119.531C82.8594 119.208 83.3958 118.766 83.7812 118.203C84.1667 117.641 84.3594 116.995 84.3594 116.266V116.234C84.3594 115.505 84.1667 114.859 83.7812 114.297C83.3958 113.734 82.8594 113.297 82.1719 112.984C81.4844 112.661 80.6875 112.5 79.7812 112.5C78.875 112.5 78.0781 112.661 77.3906 112.984C76.7031 113.297 76.1667 113.734 75.7812 114.297C75.3958 114.859 75.2031 115.505 75.2031 116.234V116.266C75.2031 116.995 75.3958 117.641 75.7812 118.203C76.1667 118.766 76.7031 119.208 77.3906 119.531C78.0781 119.844 78.875 120 79.7812 120ZM99.0625 133.375C97.3333 133.375 95.849 132.901 94.6094 131.953C93.3802 131.005 92.4375 129.661 91.7812 127.922C91.125 126.182 90.7969 124.12 90.7969 121.734V121.703C90.7969 119.318 91.125 117.255 91.7812 115.516C92.4375 113.776 93.3802 112.438 94.6094 111.5C95.849 110.552 97.3333 110.078 99.0625 110.078C100.792 110.078 102.276 110.552 103.516 111.5C104.755 112.438 105.703 113.776 106.359 115.516C107.026 117.255 107.359 119.318 107.359 121.703V121.734C107.359 124.12 107.026 126.182 106.359 127.922C105.703 129.661 104.755 131.005 103.516 131.953C102.276 132.901 100.792 133.375 99.0625 133.375ZM99.0625 130.922C100.208 130.922 101.188 130.552 102 129.812C102.823 129.062 103.448 128 103.875 126.625C104.312 125.25 104.531 123.62 104.531 121.734V121.703C104.531 119.818 104.312 118.193 103.875 116.828C103.448 115.453 102.823 114.396 102 113.656C101.188 112.917 100.208 112.547 99.0625 112.547C97.9167 112.547 96.9375 112.917 96.125 113.656C95.3125 114.396 94.6927 115.453 94.2656 116.828C93.8385 118.193 93.625 119.818 93.625 121.703V121.734C93.625 123.62 93.8385 125.25 94.2656 126.625C94.6927 128 95.3125 129.062 96.125 129.812C96.9375 130.552 97.9167 130.922 99.0625 130.922Z" fill="#999999"/>
<path d="M82.6875 511.375C80.9583 511.375 79.474 510.901 78.2344 509.953C77.0052 509.005 76.0625 507.661 75.4062 505.922C74.75 504.182 74.4219 502.12 74.4219 499.734V499.703C74.4219 497.318 74.75 495.255 75.4062 493.516C76.0625 491.776 77.0052 490.438 78.2344 489.5C79.474 488.552 80.9583 488.078 82.6875 488.078C84.4167 488.078 85.901 488.552 87.1406 489.5C88.3802 490.438 89.3281 491.776 89.9844 493.516C90.651 495.255 90.9844 497.318 90.9844 499.703V499.734C90.9844 502.12 90.651 504.182 89.9844 505.922C89.3281 507.661 88.3802 509.005 87.1406 509.953C85.901 510.901 84.4167 511.375 82.6875 511.375ZM82.6875 508.922C83.8333 508.922 84.8125 508.552 85.625 507.812C86.4479 507.062 87.0729 506 87.5 504.625C87.9375 503.25 88.1562 501.62 88.1562 499.734V499.703C88.1562 497.818 87.9375 496.193 87.5 494.828C87.0729 493.453 86.4479 492.396 85.625 491.656C84.8125 490.917 83.8333 490.547 82.6875 490.547C81.5417 490.547 80.5625 490.917 79.75 491.656C78.9375 492.396 78.3177 493.453 77.8906 494.828C77.4635 496.193 77.25 497.818 77.25 499.703V499.734C77.25 501.62 77.4635 503.25 77.8906 504.625C78.3177 506 78.9375 507.062 79.75 507.812C80.5625 508.552 81.5417 508.922 82.6875 508.922Z" fill="#999999"/>
<path d="M149.578 591V571.438H149.516L143.547 575.594V572.766L149.547 568.453H152.297V591H149.578Z" fill="#343434"/>
<path d="M253.422 591.375C251.87 591.375 250.516 591.109 249.359 590.578C248.203 590.047 247.286 589.318 246.609 588.391C245.943 587.464 245.557 586.406 245.453 585.219L245.438 585.031H248.141L248.156 585.188C248.24 585.927 248.505 586.578 248.953 587.141C249.411 587.703 250.021 588.146 250.781 588.469C251.542 588.781 252.422 588.938 253.422 588.938C254.411 588.938 255.276 588.766 256.016 588.422C256.766 588.078 257.349 587.604 257.766 587C258.182 586.385 258.391 585.682 258.391 584.891V584.859C258.391 583.474 257.927 582.411 257 581.672C256.083 580.922 254.833 580.547 253.25 580.547H250.422V578.172H253.125C254.021 578.172 254.812 578.005 255.5 577.672C256.188 577.328 256.724 576.865 257.109 576.281C257.495 575.688 257.688 575.016 257.688 574.266V574.234C257.688 573.443 257.521 572.771 257.188 572.219C256.854 571.667 256.365 571.245 255.719 570.953C255.083 570.661 254.307 570.516 253.391 570.516C252.505 570.516 251.714 570.667 251.016 570.969C250.328 571.26 249.776 571.682 249.359 572.234C248.943 572.786 248.693 573.443 248.609 574.203L248.594 574.359H245.891L245.906 574.203C246.031 572.974 246.417 571.901 247.062 570.984C247.719 570.068 248.583 569.354 249.656 568.844C250.74 568.333 251.984 568.078 253.391 568.078C254.828 568.078 256.078 568.328 257.141 568.828C258.214 569.318 259.042 570 259.625 570.875C260.219 571.74 260.516 572.745 260.516 573.891V573.922C260.516 574.849 260.312 575.672 259.906 576.391C259.5 577.109 258.938 577.708 258.219 578.188C257.5 578.667 256.672 579.005 255.734 579.203V579.266C257.38 579.401 258.708 579.958 259.719 580.938C260.74 581.906 261.25 583.193 261.25 584.797V584.828C261.25 586.078 260.911 587.198 260.234 588.188C259.557 589.177 258.63 589.958 257.453 590.531C256.276 591.094 254.932 591.375 253.422 591.375Z" fill="#343434"/>
<path d="M193.828 591V589.062L201.766 580.781C202.786 579.719 203.562 578.844 204.094 578.156C204.635 577.458 205.005 576.833 205.203 576.281C205.411 575.729 205.516 575.141 205.516 574.516V574.484C205.516 573.714 205.333 573.031 204.969 572.438C204.615 571.844 204.12 571.38 203.484 571.047C202.859 570.703 202.135 570.531 201.312 570.531C200.375 570.531 199.536 570.729 198.797 571.125C198.057 571.51 197.474 572.031 197.047 572.688C196.62 573.344 196.406 574.078 196.406 574.891V574.969H193.688V574.875C193.688 573.573 194.026 572.411 194.703 571.391C195.38 570.359 196.292 569.552 197.438 568.969C198.594 568.375 199.87 568.078 201.266 568.078C202.63 568.078 203.844 568.354 204.906 568.906C205.969 569.458 206.802 570.208 207.406 571.156C208.021 572.104 208.328 573.167 208.328 574.344V574.375C208.328 575.198 208.172 575.995 207.859 576.766C207.557 577.536 207.026 578.406 206.266 579.375C205.505 580.333 204.432 581.521 203.047 582.938L196.859 589.281L197.688 587.547V589.281L196.859 588.5H208.703V591H193.828Z" fill="#343434"/>
<path d="M307.547 591V586.312H296.219V583.766C296.875 582.745 297.531 581.724 298.188 580.703C298.854 579.682 299.516 578.661 300.172 577.641C300.839 576.62 301.5 575.599 302.156 574.578C302.812 573.557 303.469 572.536 304.125 571.516C304.792 570.495 305.453 569.474 306.109 568.453H310.266V583.844H313.453V586.312H310.266V591H307.547ZM299 583.844H307.547V570.859H307.453C306.891 571.724 306.328 572.589 305.766 573.453C305.203 574.307 304.641 575.167 304.078 576.031C303.516 576.885 302.948 577.745 302.375 578.609C301.812 579.474 301.25 580.339 300.688 581.203C300.125 582.057 299.562 582.917 299 583.781V583.844Z" fill="#343434"/>
<path d="M357.578 591.375C356.141 591.375 354.859 591.099 353.734 590.547C352.62 589.995 351.724 589.24 351.047 588.281C350.37 587.323 349.974 586.234 349.859 585.016L349.844 584.844H352.609L352.625 584.969C352.719 585.708 352.99 586.38 353.438 586.984C353.885 587.578 354.469 588.047 355.188 588.391C355.906 588.734 356.714 588.906 357.609 588.906C358.63 588.906 359.531 588.688 360.312 588.25C361.094 587.812 361.703 587.208 362.141 586.438C362.578 585.656 362.797 584.76 362.797 583.75V583.719C362.797 582.729 362.573 581.854 362.125 581.094C361.688 580.323 361.083 579.719 360.312 579.281C359.542 578.844 358.656 578.625 357.656 578.625C356.896 578.625 356.188 578.74 355.531 578.969C354.885 579.188 354.312 579.526 353.812 579.984C353.615 580.172 353.422 580.375 353.234 580.594C353.057 580.812 352.896 581.052 352.75 581.312H350.266L351.422 568.453H364.328V570.953H353.734L352.969 578.531H353.031C353.385 578.021 353.823 577.594 354.344 577.25C354.865 576.906 355.448 576.646 356.094 576.469C356.74 576.292 357.427 576.203 358.156 576.203C359.604 576.203 360.885 576.526 362 577.172C363.125 577.818 364.005 578.703 364.641 579.828C365.286 580.943 365.609 582.224 365.609 583.672V583.703C365.609 585.203 365.266 586.531 364.578 587.688C363.891 588.844 362.943 589.75 361.734 590.406C360.526 591.052 359.141 591.375 357.578 591.375Z" fill="#343434"/>
<path d="M408.984 591.375C407.943 591.375 406.917 591.182 405.906 590.797C404.896 590.401 403.974 589.766 403.141 588.891C402.318 588.016 401.656 586.865 401.156 585.438C400.667 584 400.422 582.234 400.422 580.141V580.109C400.422 577.578 400.766 575.417 401.453 573.625C402.151 571.823 403.151 570.448 404.453 569.5C405.766 568.552 407.339 568.078 409.172 568.078C410.453 568.078 411.604 568.307 412.625 568.766C413.656 569.214 414.516 569.849 415.203 570.672C415.891 571.495 416.359 572.453 416.609 573.547L416.656 573.75H413.797L413.734 573.578C413.516 572.953 413.193 572.417 412.766 571.969C412.339 571.521 411.818 571.177 411.203 570.938C410.599 570.688 409.911 570.562 409.141 570.562C407.745 570.562 406.615 570.969 405.75 571.781C404.885 572.594 404.245 573.667 403.828 575C403.422 576.333 403.198 577.792 403.156 579.375C403.146 579.479 403.141 579.583 403.141 579.688C403.141 579.781 403.141 579.88 403.141 579.984L403.812 583.688C403.812 584.646 404.036 585.521 404.484 586.312C404.943 587.094 405.562 587.719 406.344 588.188C407.125 588.646 407.995 588.875 408.953 588.875C409.911 588.875 410.781 588.651 411.562 588.203C412.344 587.745 412.964 587.13 413.422 586.359C413.88 585.589 414.109 584.729 414.109 583.781V583.75C414.109 582.771 413.891 581.901 413.453 581.141C413.016 580.38 412.411 579.786 411.641 579.359C410.87 578.922 409.99 578.703 409 578.703C408.021 578.703 407.135 578.917 406.344 579.344C405.562 579.771 404.943 580.359 404.484 581.109C404.036 581.859 403.812 582.714 403.812 583.672V583.688H402.875V579.859H403.203C403.505 579.193 403.953 578.589 404.547 578.047C405.151 577.495 405.87 577.057 406.703 576.734C407.536 576.401 408.464 576.234 409.484 576.234C410.922 576.234 412.203 576.557 413.328 577.203C414.453 577.849 415.339 578.734 415.984 579.859C416.641 580.984 416.969 582.26 416.969 583.688V583.719C416.969 585.198 416.62 586.516 415.922 587.672C415.234 588.818 414.292 589.724 413.094 590.391C411.896 591.047 410.526 591.375 408.984 591.375Z" fill="#343434"/>
<path d="M455.125 591L465.328 571.016V570.953H453.188V568.453H468.109V571.062L458.078 591H455.125Z" fill="#343434"/>
<path d="M512.594 591.375C511 591.375 509.589 591.099 508.359 590.547C507.13 589.995 506.161 589.234 505.453 588.266C504.755 587.286 504.406 586.167 504.406 584.906V584.875C504.406 583.948 504.609 583.089 505.016 582.297C505.422 581.505 505.99 580.833 506.719 580.281C507.448 579.719 508.292 579.328 509.25 579.109V579.047C508.021 578.661 507.042 578.026 506.312 577.141C505.583 576.255 505.219 575.219 505.219 574.031V574C505.219 572.865 505.536 571.854 506.172 570.969C506.807 570.073 507.682 569.37 508.797 568.859C509.911 568.339 511.177 568.078 512.594 568.078C514.021 568.078 515.286 568.339 516.391 568.859C517.505 569.37 518.38 570.073 519.016 570.969C519.651 571.854 519.969 572.865 519.969 574V574.031C519.969 575.219 519.604 576.255 518.875 577.141C518.156 578.026 517.177 578.661 515.938 579.047V579.109C516.906 579.328 517.75 579.719 518.469 580.281C519.198 580.833 519.766 581.505 520.172 582.297C520.578 583.089 520.781 583.948 520.781 584.875V584.906C520.781 586.167 520.432 587.286 519.734 588.266C519.036 589.234 518.068 589.995 516.828 590.547C515.599 591.099 514.188 591.375 512.594 591.375ZM512.594 588.922C513.635 588.922 514.552 588.745 515.344 588.391C516.146 588.026 516.776 587.531 517.234 586.906C517.693 586.271 517.922 585.547 517.922 584.734V584.703C517.922 583.88 517.693 583.151 517.234 582.516C516.786 581.88 516.161 581.38 515.359 581.016C514.557 580.651 513.635 580.469 512.594 580.469C511.552 580.469 510.63 580.651 509.828 581.016C509.026 581.38 508.396 581.88 507.938 582.516C507.49 583.151 507.266 583.88 507.266 584.703V584.734C507.266 585.547 507.495 586.271 507.953 586.906C508.411 587.531 509.042 588.026 509.844 588.391C510.646 588.745 511.562 588.922 512.594 588.922ZM512.594 578C513.5 578 514.297 577.844 514.984 577.531C515.672 577.208 516.208 576.766 516.594 576.203C516.979 575.641 517.172 574.995 517.172 574.266V574.234C517.172 573.505 516.979 572.859 516.594 572.297C516.208 571.734 515.672 571.297 514.984 570.984C514.297 570.661 513.5 570.5 512.594 570.5C511.688 570.5 510.891 570.661 510.203 570.984C509.516 571.297 508.979 571.734 508.594 572.297C508.208 572.859 508.016 573.505 508.016 574.234V574.266C508.016 574.995 508.208 575.641 508.594 576.203C508.979 576.766 509.516 577.208 510.203 577.531C510.891 577.844 511.688 578 512.594 578Z" fill="#343434"/>
<path d="M564.766 568.078C565.807 568.078 566.833 568.276 567.844 568.672C568.854 569.057 569.771 569.688 570.594 570.562C571.427 571.438 572.089 572.594 572.578 574.031C573.078 575.458 573.328 577.219 573.328 579.312V579.344C573.328 581.875 572.979 584.042 572.281 585.844C571.594 587.635 570.599 589.005 569.297 589.953C567.995 590.901 566.422 591.375 564.578 591.375C563.307 591.375 562.156 591.146 561.125 590.688C560.094 590.229 559.234 589.594 558.547 588.781C557.859 587.958 557.391 587 557.141 585.906L557.094 585.703H559.953L560.016 585.875C560.245 586.49 560.568 587.026 560.984 587.484C561.411 587.932 561.927 588.281 562.531 588.531C563.146 588.771 563.839 588.891 564.609 588.891C566.016 588.891 567.146 588.484 568 587.672C568.865 586.859 569.5 585.786 569.906 584.453C570.323 583.109 570.552 581.651 570.594 580.078C570.604 579.974 570.609 579.875 570.609 579.781C570.609 579.677 570.609 579.573 570.609 579.469L569.938 575.766C569.938 574.797 569.708 573.922 569.25 573.141C568.802 572.359 568.188 571.74 567.406 571.281C566.635 570.812 565.766 570.578 564.797 570.578C563.839 570.578 562.969 570.807 562.188 571.266C561.406 571.714 560.786 572.323 560.328 573.094C559.87 573.865 559.641 574.724 559.641 575.672V575.703C559.641 576.682 559.859 577.552 560.297 578.312C560.734 579.073 561.339 579.672 562.109 580.109C562.88 580.536 563.76 580.75 564.75 580.75C565.74 580.75 566.625 580.536 567.406 580.109C568.188 579.682 568.802 579.094 569.25 578.344C569.708 577.594 569.938 576.74 569.938 575.781V575.766H570.875V579.594H570.547C570.245 580.26 569.797 580.87 569.203 581.422C568.609 581.964 567.891 582.401 567.047 582.734C566.214 583.057 565.286 583.219 564.266 583.219C562.839 583.219 561.557 582.896 560.422 582.25C559.297 581.604 558.406 580.719 557.75 579.594C557.104 578.469 556.781 577.193 556.781 575.766V575.734C556.781 574.255 557.125 572.943 557.812 571.797C558.51 570.641 559.458 569.734 560.656 569.078C561.854 568.411 563.224 568.078 564.766 568.078Z" fill="#343434"/>
<path d="M607.578 591V571.438H607.516L601.547 575.594V572.766L607.547 568.453H610.297V591H607.578ZM623.875 591.375C622.146 591.375 620.661 590.901 619.422 589.953C618.193 589.005 617.25 587.661 616.594 585.922C615.938 584.182 615.609 582.12 615.609 579.734V579.703C615.609 577.318 615.938 575.255 616.594 573.516C617.25 571.776 618.193 570.438 619.422 569.5C620.661 568.552 622.146 568.078 623.875 568.078C625.604 568.078 627.089 568.552 628.328 569.5C629.568 570.438 630.516 571.776 631.172 573.516C631.839 575.255 632.172 577.318 632.172 579.703V579.734C632.172 582.12 631.839 584.182 631.172 585.922C630.516 587.661 629.568 589.005 628.328 589.953C627.089 590.901 625.604 591.375 623.875 591.375ZM623.875 588.922C625.021 588.922 626 588.552 626.812 587.812C627.635 587.062 628.26 586 628.688 584.625C629.125 583.25 629.344 581.62 629.344 579.734V579.703C629.344 577.818 629.125 576.193 628.688 574.828C628.26 573.453 627.635 572.396 626.812 571.656C626 570.917 625.021 570.547 623.875 570.547C622.729 570.547 621.75 570.917 620.938 571.656C620.125 572.396 619.505 573.453 619.078 574.828C618.651 576.193 618.438 577.818 618.438 579.703V579.734C618.438 581.62 618.651 583.25 619.078 584.625C619.505 586 620.125 587.062 620.938 587.812C621.75 588.552 622.729 588.922 623.875 588.922Z" fill="#343434"/>
<path d="M662.578 591V571.438H662.516L656.547 575.594V572.766L662.547 568.453H665.297V591H662.578ZM676.766 591V571.438H676.703L670.734 575.594V572.766L676.734 568.453H679.484V591H676.766Z" fill="#343434"/>
<path d="M712.578 591V571.438H712.516L706.547 575.594V572.766L712.547 568.453H715.297V591H712.578ZM721.016 591V589.062L728.953 580.781C729.974 579.719 730.75 578.844 731.281 578.156C731.823 577.458 732.193 576.833 732.391 576.281C732.599 575.729 732.703 575.141 732.703 574.516V574.484C732.703 573.714 732.521 573.031 732.156 572.438C731.802 571.844 731.307 571.38 730.672 571.047C730.047 570.703 729.323 570.531 728.5 570.531C727.562 570.531 726.724 570.729 725.984 571.125C725.245 571.51 724.661 572.031 724.234 572.688C723.807 573.344 723.594 574.078 723.594 574.891V574.969H720.875V574.875C720.875 573.573 721.214 572.411 721.891 571.391C722.568 570.359 723.479 569.552 724.625 568.969C725.781 568.375 727.057 568.078 728.453 568.078C729.818 568.078 731.031 568.354 732.094 568.906C733.156 569.458 733.99 570.208 734.594 571.156C735.208 572.104 735.516 573.167 735.516 574.344V574.375C735.516 575.198 735.359 575.995 735.047 576.766C734.745 577.536 734.214 578.406 733.453 579.375C732.693 580.333 731.62 581.521 730.234 582.938L724.047 589.281L724.875 587.547V589.281L724.047 588.5H735.891V591H721.016Z" fill="#343434"/>
<rect x="143" y="282" width="12" height="237" rx="6" fill="#00E6BD"/>
<rect x="195" y="275" width="12" height="244" rx="6" fill="#00E6BD"/>
<rect x="247" y="259" width="12" height="263" rx="6" fill="#00E6BD"/>
<rect x="299" y="235" width="12" height="287" rx="6" fill="#00E6BD"/>
<rect x="351" y="205" width="12" height="317" rx="6" fill="#00E6BD"/>
<rect x="403" y="167" width="12" height="355" rx="6" fill="#00E6BD"/>
<rect x="455" y="133" width="12" height="389" rx="6" fill="#00E6BD"/>
<rect x="507" y="103" width="12" height="419" rx="6" fill="#00E6BD"/>
<rect x="559" y="103" width="12" height="419" rx="6" fill="#00E6BD"/>
<rect x="611" y="103" width="12" height="419" rx="6" fill="#00E6BD"/>
<rect x="663" y="119" width="12" height="403" rx="6" fill="#00E6BD"/>
<rect x="715" y="133" width="12" height="392" rx="6" fill="#00E6BD"/>
<path d="M656.562 35.375C654.938 35.375 653.505 35.125 652.266 34.625C651.036 34.1146 650.057 33.3906 649.328 32.4531C648.609 31.5156 648.203 30.4062 648.109 29.125L648.094 28.9062H650.906L650.938 29.125C651.052 29.875 651.359 30.526 651.859 31.0781C652.359 31.6198 653.021 32.0417 653.844 32.3438C654.677 32.6354 655.635 32.7812 656.719 32.7812C657.802 32.7812 658.74 32.6302 659.531 32.3281C660.323 32.0156 660.932 31.5729 661.359 31C661.797 30.4271 662.016 29.7552 662.016 28.9844V28.9688C662.016 27.9792 661.672 27.1875 660.984 26.5938C660.297 26 659.177 25.5312 657.625 25.1875L655.125 24.6406C652.927 24.151 651.297 23.401 650.234 22.3906C649.182 21.3698 648.656 20.0365 648.656 18.3906V18.375C648.667 17.1354 649.01 16.0469 649.688 15.1094C650.365 14.1615 651.297 13.4219 652.484 12.8906C653.682 12.349 655.052 12.0781 656.594 12.0781C658.062 12.0781 659.375 12.3438 660.531 12.875C661.688 13.3958 662.609 14.125 663.297 15.0625C663.995 16 664.385 17.0833 664.469 18.3125L664.484 18.5469H661.672L661.641 18.3281C661.526 17.5573 661.245 16.901 660.797 16.3594C660.349 15.8177 659.76 15.401 659.031 15.1094C658.312 14.8177 657.474 14.6719 656.516 14.6719C655.516 14.6719 654.641 14.8229 653.891 15.125C653.141 15.4271 652.557 15.849 652.141 16.3906C651.734 16.9323 651.531 17.5677 651.531 18.2969V18.3125C651.531 19.2292 651.88 19.9844 652.578 20.5781C653.276 21.1719 654.359 21.6302 655.828 21.9531L658.328 22.5C659.87 22.8333 661.12 23.276 662.078 23.8281C663.047 24.3802 663.755 25.0677 664.203 25.8906C664.661 26.7031 664.891 27.6823 664.891 28.8281V28.8438C664.891 30.1771 664.552 31.3333 663.875 32.3125C663.208 33.2917 662.25 34.0469 661 34.5781C659.76 35.1094 658.281 35.375 656.562 35.375ZM672.516 35.3125C671.443 35.3125 670.5 35.1094 669.688 34.7031C668.875 34.2969 668.24 33.724 667.781 32.9844C667.333 32.2448 667.109 31.3854 667.109 30.4062V30.375C667.109 29.4479 667.339 28.6458 667.797 27.9688C668.266 27.2917 668.938 26.7552 669.812 26.3594C670.698 25.9635 671.76 25.7292 673 25.6562L679.016 25.3125V27.4219L673.312 27.7656C672.229 27.8281 671.385 28.0885 670.781 28.5469C670.188 29.0052 669.891 29.6146 669.891 30.375V30.4062C669.891 31.1875 670.182 31.8073 670.766 32.2656C671.359 32.724 672.146 32.9531 673.125 32.9531C673.979 32.9531 674.745 32.776 675.422 32.4219C676.109 32.0573 676.651 31.5625 677.047 30.9375C677.453 30.3125 677.656 29.6094 677.656 28.8281V24.0312C677.656 23.0417 677.344 22.2656 676.719 21.7031C676.104 21.1302 675.229 20.8438 674.094 20.8438C673.052 20.8438 672.208 21.0729 671.562 21.5312C670.927 21.9792 670.531 22.5677 670.375 23.2969L670.344 23.4375H667.719L667.734 23.2656C667.818 22.3698 668.12 21.5573 668.641 20.8281C669.172 20.099 669.901 19.5208 670.828 19.0938C671.755 18.6562 672.854 18.4375 674.125 18.4375C675.406 18.4375 676.51 18.6562 677.438 19.0938C678.375 19.5312 679.099 20.151 679.609 20.9531C680.12 21.7448 680.375 22.6823 680.375 23.7656V35H677.656V32.3594H677.594C677.281 32.9531 676.865 33.474 676.344 33.9219C675.823 34.3594 675.234 34.7031 674.578 34.9531C673.932 35.1927 673.245 35.3125 672.516 35.3125ZM689.109 35.3125C687.62 35.3125 686.505 34.9583 685.766 34.25C685.026 33.5417 684.656 32.4115 684.656 30.8594V21H682.281V18.75H684.656V14.3594H687.469V18.75H690.562V21H687.469V30.8438C687.469 31.7083 687.656 32.2969 688.031 32.6094C688.406 32.9115 688.958 33.0625 689.688 33.0625C689.854 33.0625 690.01 33.0573 690.156 33.0469C690.312 33.026 690.448 33.0104 690.562 33V35.2031C690.396 35.224 690.177 35.2448 689.906 35.2656C689.646 35.2969 689.38 35.3125 689.109 35.3125ZM693.141 35V33.0625L702.125 21.0469V21H693.156V18.75H705.219V20.7344L696.297 32.7031V32.75H705.266V35H693.141ZM720.828 35V15.4375H720.766L714.797 19.5938V16.7656L720.797 12.4531H723.547V35H720.828Z" fill="#343434"/>
<rect x="308" y="663" width="20" height="20" rx="10" fill="#00E6BD"/>
<rect x="388" y="663" width="20" height="20" rx="10" fill="#999999"/>
<rect x="468" y="663" width="20" height="20" rx="10" fill="#999999"/>
<path d="M769.266 23.7188C769.266 23.9167 769.224 24.1042 769.141 24.2812C769.068 24.4479 768.958 24.6042 768.812 24.75L756.438 36.8594C756.156 37.1406 755.812 37.2812 755.406 37.2812C755.146 37.2812 754.906 37.2188 754.688 37.0938C754.469 36.9688 754.297 36.7969 754.172 36.5781C754.047 36.3698 753.984 36.1302 753.984 35.8594C753.984 35.474 754.12 35.1354 754.391 34.8438L765.766 23.7188L754.391 12.5938C754.12 12.3021 753.984 11.9635 753.984 11.5781C753.984 11.3073 754.047 11.0677 754.172 10.8594C754.297 10.6406 754.469 10.4688 754.688 10.3438C754.906 10.2188 755.146 10.1562 755.406 10.1562C755.812 10.1562 756.156 10.2917 756.438 10.5625L768.812 22.6875C768.958 22.8333 769.068 22.9948 769.141 23.1719C769.224 23.3385 769.266 23.5208 769.266 23.7188Z" fill="#343434"/>
<path d="M605 23.7188C605 23.5208 605.036 23.3385 605.109 23.1719C605.182 22.9948 605.292 22.8333 605.438 22.6875L617.828 10.5625C618.109 10.2917 618.448 10.1562 618.844 10.1562C619.115 10.1562 619.354 10.2188 619.562 10.3438C619.781 10.4688 619.953 10.6406 620.078 10.8594C620.214 11.0677 620.281 11.3073 620.281 11.5781C620.281 11.9635 620.141 12.3021 619.859 12.5938L608.484 23.7188L619.859 34.8438C620.141 35.1354 620.281 35.474 620.281 35.8594C620.281 36.1302 620.214 36.3698 620.078 36.5781C619.953 36.7969 619.781 36.9688 619.562 37.0938C619.354 37.2188 619.115 37.2812 618.844 37.2812C618.448 37.2812 618.109 37.1406 617.828 36.8594L605.438 24.75C605.292 24.6042 605.182 24.4479 605.109 24.2812C605.036 24.1042 605 23.9167 605 23.7188Z" fill="#343434"/>
<defs>
<filter id="filter0_d_178_568" x="0" y="51" width="796" height="608" filterUnits="userSpaceOnUse" color-interpolation-filters="sRGB">
<feFlood flood-opacity="0" result="BackgroundImageFix"/>
<feColorMatrix in="SourceAlpha" type="matrix" values="0 0 0 0 0 0 0 0 0 0 0 0 0 0 0 0 0 0 127 0" result="hardAlpha"/>
<feMorphology radius="4" operator="dilate" in="SourceAlpha" result="effect1_dropShadow_178_568"/>
<feOffset dy="4"/>
<feGaussianBlur stdDeviation="10"/>
<feComposite in2="hardAlpha" operator="out"/>
<feColorMatrix type="matrix" values="0 0 0 0 0 0 0 0 0 0 0 0 0 0 0 0 0 0 0.1 0"/>
<feBlend mode="normal" in2="BackgroundImageFix" result="effect1_dropShadow_178_568"/>
<feBlend mode="normal" in="SourceGraphic" in2="effect1_dropShadow_178_568" result="shape"/>
</filter>
<filter id="filter1_d_178_568" x="0" y="51" width="796" height="608" filterUnits="userSpaceOnUse" color-interpolation-filters="sRGB">
<feFlood flood-opacity="0" result="BackgroundImageFix"/>
<feColorMatrix in="SourceAlpha" type="matrix" values="0 0 0 0 0 0 0 0 0 0 0 0 0 0 0 0 0 0 127 0" result="hardAlpha"/>
<feMorphology radius="4" operator="dilate" in="SourceAlpha" result="effect1_dropShadow_178_568"/>
<feOffset dy="4"/>
<feGaussianBlur stdDeviation="10"/>
<feComposite in2="hardAlpha" operator="out"/>
<feColorMatrix type="matrix" values="0 0 0 0 0 0 0 0 0 0 0 0 0 0 0 0 0 0 0.1 0"/>
<feBlend mode="normal" in2="BackgroundImageFix" result="effect1_dropShadow_178_568"/>
<feBlend mode="normal" in="SourceGraphic" in2="effect1_dropShadow_178_568" result="shape"/>
</filter>
</defs>
</svg>
